<svg width="361" height="171" viewBox="0 0 361 171" fill="none" xmlns="http://www.w3.org/2000/svg">
<g clip-path="url(#clip0_359_15555)">
<path d="M122.263 143.194C122.699 143.194 123.078 143.27 123.399 143.419C123.72 143.568 123.986 143.772 124.196 144.03C124.405 144.289 124.559 144.593 124.659 144.944C124.757 145.295 124.807 145.676 124.807 146.088C124.807 147.062 124.562 147.792 124.072 148.279C123.582 148.765 122.863 149.009 121.916 149.009H121.113V152.588H118.815V143.194H122.261H122.263ZM121.546 147.247C121.834 147.247 122.055 147.156 122.207 146.97C122.359 146.787 122.436 146.496 122.436 146.102C122.436 145.338 122.139 144.957 121.546 144.957H121.113V147.246H121.546V147.247Z" fill="white"/>
<path d="M129.292 143.194L131.442 152.588H128.996L128.761 150.944H126.932L126.696 152.588H124.287L126.399 143.194H129.29H129.292ZM127.834 145.115L127.203 149.102H128.489L127.858 145.115H127.834Z" fill="white"/>
<path d="M135.295 143.194C135.731 143.194 136.104 143.256 136.413 143.378C136.723 143.501 136.973 143.675 137.166 143.897C137.359 144.122 137.5 144.387 137.586 144.694C137.672 145.001 137.716 145.334 137.716 145.694C137.716 146.324 137.596 146.833 137.358 147.22C137.12 147.606 136.736 147.844 136.21 147.931V147.958C136.762 148.011 137.141 148.217 137.346 148.577C137.551 148.937 137.655 149.432 137.655 150.063V151.246C137.655 151.377 137.66 151.502 137.667 151.621C137.675 151.74 137.688 151.847 137.705 151.943C137.722 152.04 137.743 152.115 137.767 152.168C137.8 152.22 137.833 152.272 137.866 152.318C137.9 152.366 137.952 152.413 138.026 152.457V152.588H135.58C135.523 152.464 135.479 152.32 135.451 152.154C135.422 151.987 135.401 151.821 135.389 151.654C135.377 151.487 135.368 151.328 135.365 151.174C135.36 151.02 135.359 150.895 135.359 150.799V150.168C135.359 149.905 135.347 149.686 135.321 149.51C135.297 149.336 135.253 149.197 135.191 149.096C135.129 148.995 135.051 148.925 134.956 148.886C134.861 148.846 134.743 148.827 134.604 148.827H133.999V152.589H131.701V143.196H135.297L135.295 143.194ZM134.455 147.168C134.784 147.168 135.027 147.065 135.184 146.859C135.341 146.653 135.419 146.383 135.419 146.05C135.419 145.656 135.342 145.374 135.19 145.209C135.037 145.042 134.788 144.959 134.443 144.959H133.998V147.169H134.455V147.168Z" fill="white"/>
<path d="M143.004 143.194L145.155 152.588H142.709L142.473 150.944H140.645L140.409 152.588H137.999L140.112 143.194H143.003H143.004ZM141.547 145.115L140.916 149.102H142.202L141.571 145.115H141.547Z" fill="white"/>
<path d="M215.063 143.194V150.588H217.892V152.588H212.765V143.194H215.063Z" fill="white"/>
<path d="M222.699 143.194L224.849 152.588H222.403L222.167 150.944H220.339L220.103 152.588H217.693L219.806 143.194H222.697H222.699ZM221.241 145.115L220.61 149.102H221.894L221.264 145.115H221.239H221.241Z" fill="white"/>
<path d="M235.432 141.749C235.26 141.413 234.979 141.245 234.591 141.245C234.29 141.245 234.048 141.329 233.869 141.498C233.689 141.666 233.552 141.965 233.46 142.394C233.366 142.823 233.306 143.401 233.277 144.127C233.249 144.854 233.233 145.768 233.233 146.87C233.233 147.972 233.247 148.887 233.277 149.613C233.306 150.34 233.366 150.918 233.46 151.346C233.553 151.775 233.689 152.073 233.869 152.242C234.048 152.41 234.29 152.495 234.591 152.495C234.836 152.495 235.037 152.43 235.195 152.299C235.353 152.169 235.476 151.951 235.562 151.644C235.648 151.338 235.71 150.929 235.744 150.415C235.78 149.904 235.799 149.256 235.799 148.476H239.68V149.693C239.68 150.84 239.536 151.783 239.248 152.517C238.96 153.252 238.58 153.83 238.106 154.25C237.632 154.672 237.089 154.955 236.478 155.099C235.867 155.245 235.239 155.318 234.591 155.318C233.47 155.318 232.551 155.172 231.832 154.881C231.113 154.59 230.552 154.104 230.151 153.424C229.748 152.743 229.472 151.862 229.321 150.783C229.17 149.703 229.094 148.399 229.094 146.868C229.094 145.337 229.184 143.984 229.365 142.896C229.544 141.809 229.849 140.93 230.28 140.256C230.712 139.583 231.279 139.096 231.984 138.798C232.689 138.5 233.558 138.351 234.593 138.351C235.498 138.351 236.266 138.475 236.9 138.718C237.532 138.964 238.045 139.312 238.441 139.763C238.836 140.215 239.123 140.759 239.302 141.394C239.482 142.029 239.572 142.744 239.572 143.541V144.574H235.691V143.655C235.691 142.722 235.605 142.086 235.433 141.749H235.432Z" fill="white"/>
<path d="M240.734 142.955C240.921 141.876 241.231 140.996 241.661 140.314C242.092 139.634 242.66 139.135 243.364 138.822C244.069 138.509 244.931 138.351 245.951 138.351C246.971 138.351 247.834 138.508 248.537 138.822C249.242 139.137 249.809 139.634 250.241 140.314C250.672 140.995 250.98 141.876 251.167 142.955C251.354 144.035 251.448 145.339 251.448 146.87C251.448 148.401 251.354 149.705 251.167 150.784C250.98 151.864 250.671 152.743 250.241 153.425C249.809 154.106 249.242 154.592 248.537 154.883C247.832 155.173 246.971 155.319 245.951 155.319C244.931 155.319 244.068 155.173 243.364 154.883C242.66 154.592 242.092 154.106 241.661 153.425C241.229 152.745 240.92 151.864 240.734 150.784C240.547 149.705 240.454 148.401 240.454 146.87C240.454 145.339 240.547 144.035 240.734 142.955ZM244.636 149.613C244.665 150.34 244.725 150.918 244.819 151.346C244.913 151.775 245.048 152.073 245.228 152.242C245.408 152.41 245.649 152.495 245.951 152.495C246.253 152.495 246.492 152.41 246.673 152.242C246.853 152.073 246.989 151.775 247.082 151.346C247.176 150.918 247.236 150.34 247.265 149.613C247.294 148.886 247.309 147.972 247.309 146.87C247.309 145.768 247.294 144.854 247.265 144.127C247.236 143.399 247.174 142.821 247.082 142.394C246.989 141.966 246.853 141.666 246.673 141.498C246.494 141.329 246.253 141.245 245.951 141.245C245.649 141.245 245.408 141.329 245.228 141.498C245.048 141.666 244.911 141.965 244.819 142.394C244.725 142.823 244.665 143.401 244.636 144.127C244.608 144.854 244.593 145.768 244.593 146.87C244.593 147.972 244.606 148.887 244.636 149.613Z" fill="white"/>
<path d="M257.16 138.673L259.746 148.774H259.79V138.673H263.541V155.065H259.144L256.472 144.94H256.428V155.065H252.677V138.673H257.162H257.16Z" fill="white"/>
<path d="M271.216 143.012C271.216 142.523 271.122 142.106 270.935 141.761C270.748 141.416 270.462 141.245 270.074 141.245C269.642 141.245 269.327 141.394 269.125 141.692C268.924 141.99 268.823 142.323 268.823 142.69C268.823 143.226 268.984 143.651 269.307 143.964C269.63 144.279 270.036 144.55 270.525 144.778C271.014 145.007 271.537 145.242 272.099 145.479C272.659 145.716 273.184 146.027 273.673 146.409C274.161 146.791 274.567 147.293 274.89 147.913C275.213 148.533 275.375 149.34 275.375 150.336C275.375 152.081 274.907 153.347 273.973 154.136C273.039 154.925 271.688 155.318 269.92 155.318C269.087 155.318 268.349 155.245 267.711 155.099C267.071 154.955 266.532 154.702 266.093 154.342C265.654 153.982 265.321 153.512 265.091 152.93C264.862 152.349 264.746 151.629 264.746 150.772V150.199H268.627V150.589C268.627 151.293 268.749 151.786 268.993 152.069C269.238 152.352 269.553 152.493 269.942 152.493C270.359 152.493 270.679 152.341 270.902 152.034C271.125 151.728 271.236 151.353 271.236 150.909C271.236 150.373 271.082 149.949 270.772 149.636C270.463 149.322 270.075 149.054 269.609 148.832C269.141 148.61 268.636 148.384 268.09 148.154C267.543 147.924 267.036 147.626 266.57 147.258C266.102 146.891 265.714 146.409 265.407 145.811C265.097 145.215 264.943 144.434 264.943 143.47C264.943 141.802 265.36 140.531 266.194 139.659C267.027 138.788 268.292 138.351 269.988 138.351C271.684 138.351 273.009 138.753 273.793 139.557C274.576 140.361 274.969 141.642 274.969 143.402H271.218V143.012H271.216Z" fill="white"/>
<path d="M275.634 142.3V138.673H285.637V142.3H282.619V155.065H278.61V142.3H275.634Z" fill="white"/>
<path d="M292.6 138.673C293.362 138.673 294.013 138.78 294.551 138.994C295.09 139.209 295.529 139.51 295.866 139.9C296.204 140.29 296.448 140.754 296.599 141.29C296.75 141.826 296.825 142.407 296.825 143.035C296.825 144.137 296.617 145.025 296.201 145.698C295.784 146.373 295.116 146.786 294.195 146.938V146.984C295.158 147.076 295.819 147.436 296.178 148.064C296.537 148.692 296.717 149.556 296.717 150.658V152.724C296.717 152.952 296.724 153.171 296.738 153.379C296.751 153.585 296.774 153.773 296.803 153.942C296.831 154.11 296.868 154.24 296.91 154.332C296.967 154.423 297.024 154.512 297.082 154.595C297.139 154.679 297.233 154.759 297.362 154.836V155.065H293.094C292.993 154.851 292.917 154.598 292.867 154.307C292.818 154.017 292.781 153.726 292.76 153.436C292.739 153.145 292.724 152.865 292.716 152.597C292.709 152.329 292.706 152.111 292.706 151.942V150.84C292.706 150.381 292.685 149.998 292.641 149.693C292.597 149.387 292.522 149.146 292.415 148.97C292.308 148.794 292.17 148.672 292.006 148.603C291.84 148.534 291.636 148.499 291.392 148.499H290.335V155.065H286.326V138.673H292.599H292.6ZM291.135 145.607C291.71 145.607 292.134 145.427 292.407 145.068C292.68 144.708 292.816 144.238 292.816 143.655C292.816 142.967 292.683 142.476 292.418 142.186C292.152 141.895 291.718 141.749 291.114 141.749H290.338V145.607H291.137H291.135Z" fill="white"/>
<path d="M302.322 150.497C302.322 151.293 302.429 151.825 302.645 152.093C302.861 152.361 303.155 152.495 303.529 152.495C303.904 152.495 304.198 152.361 304.414 152.093C304.629 151.825 304.737 151.293 304.737 150.497V138.673H308.746V149.417C308.746 150.565 308.631 151.522 308.4 152.287C308.171 153.053 307.836 153.665 307.398 154.124C306.959 154.583 306.417 154.896 305.77 155.065C305.123 155.233 304.376 155.318 303.528 155.318C302.68 155.318 301.951 155.233 301.296 155.065C300.643 154.896 300.097 154.583 299.658 154.124C299.218 153.665 298.885 153.053 298.656 152.287C298.426 151.522 298.31 150.565 298.31 149.417V138.673H302.319V150.497H302.322Z" fill="white"/>
<path d="M316.139 141.749C315.967 141.413 315.687 141.245 315.299 141.245C314.997 141.245 314.756 141.329 314.576 141.498C314.397 141.666 314.259 141.965 314.167 142.394C314.074 142.823 314.013 143.401 313.985 144.127C313.956 144.854 313.941 145.768 313.941 146.87C313.941 147.972 313.955 148.887 313.985 149.613C314.013 150.34 314.074 150.918 314.167 151.346C314.261 151.775 314.397 152.073 314.576 152.242C314.756 152.41 314.997 152.495 315.299 152.495C315.543 152.495 315.744 152.43 315.903 152.299C316.061 152.169 316.183 151.951 316.269 151.644C316.355 151.338 316.417 150.929 316.452 150.415C316.488 149.904 316.506 149.256 316.506 148.476H320.387V149.693C320.387 150.84 320.244 151.783 319.955 152.517C319.667 153.252 319.287 153.83 318.813 154.25C318.339 154.672 317.796 154.955 317.185 155.099C316.574 155.245 315.946 155.318 315.299 155.318C314.178 155.318 313.259 155.172 312.539 154.881C311.821 154.59 311.26 154.104 310.858 153.424C310.455 152.743 310.179 151.862 310.028 150.783C309.877 149.703 309.802 148.399 309.802 146.868C309.802 145.337 309.891 143.984 310.072 142.896C310.252 141.809 310.556 140.93 310.988 140.256C311.42 139.583 311.987 139.096 312.692 138.798C313.396 138.5 314.265 138.351 315.301 138.351C316.206 138.351 316.974 138.475 317.608 138.718C318.24 138.964 318.753 139.312 319.148 139.763C319.544 140.215 319.83 140.759 320.01 141.394C320.189 142.029 320.28 142.744 320.28 143.541V144.574H316.399V143.655C316.399 142.722 316.313 142.086 316.141 141.749H316.139Z" fill="white"/>
<path d="M327.5 141.749C327.328 141.413 327.047 141.245 326.659 141.245C326.358 141.245 326.116 141.329 325.937 141.498C325.757 141.666 325.62 141.965 325.528 142.394C325.434 142.823 325.374 143.401 325.345 144.127C325.317 144.854 325.301 145.768 325.301 146.87C325.301 147.972 325.315 148.887 325.345 149.613C325.374 150.34 325.434 150.918 325.528 151.346C325.621 151.775 325.757 152.073 325.937 152.242C326.116 152.41 326.358 152.495 326.659 152.495C326.904 152.495 327.105 152.43 327.263 152.299C327.422 152.169 327.544 151.951 327.63 151.644C327.716 151.338 327.778 150.929 327.812 150.415C327.849 149.904 327.867 149.256 327.867 148.476H331.748V149.693C331.748 150.84 331.604 151.783 331.316 152.517C331.028 153.252 330.648 153.83 330.174 154.25C329.7 154.672 329.157 154.955 328.546 155.099C327.935 155.245 327.307 155.318 326.659 155.318C325.538 155.318 324.619 155.172 323.9 154.881C323.181 154.59 322.62 154.104 322.219 153.424C321.816 152.743 321.54 151.862 321.389 150.783C321.238 149.703 321.162 148.399 321.162 146.868C321.162 145.337 321.252 143.984 321.433 142.896C321.612 141.809 321.917 140.93 322.349 140.256C322.78 139.583 323.347 139.096 324.052 138.798C324.757 138.5 325.626 138.351 326.661 138.351C327.566 138.351 328.334 138.475 328.968 138.718C329.6 138.964 330.113 139.312 330.509 139.763C330.904 140.215 331.191 140.759 331.37 141.394C331.55 142.029 331.64 142.744 331.64 143.541V144.574H327.759V143.655C327.759 142.722 327.673 142.086 327.501 141.749H327.5Z" fill="white"/>
<path d="M336.834 138.673V155.065H332.825V138.673H336.834Z" fill="white"/>
<path d="M338.192 142.955C338.38 141.875 338.689 140.996 339.119 140.314C339.55 139.633 340.118 139.135 340.822 138.822C341.527 138.508 342.389 138.35 343.409 138.35C344.429 138.35 345.292 138.507 345.995 138.822C346.7 139.136 347.267 139.633 347.699 140.314C348.13 140.994 348.438 141.875 348.625 142.955C348.812 144.034 348.906 145.338 348.906 146.869C348.906 148.4 348.812 149.704 348.625 150.784C348.438 151.863 348.129 152.742 347.699 153.424C347.267 154.105 346.7 154.591 345.995 154.882C345.29 155.172 344.429 155.319 343.409 155.319C342.389 155.319 341.526 155.172 340.822 154.882C340.118 154.591 339.55 154.105 339.119 153.424C338.687 152.744 338.378 151.863 338.192 150.784C338.005 149.704 337.912 148.4 337.912 146.869C337.912 145.338 338.005 144.034 338.192 142.955ZM346.405 134.172L344.337 137.524H341.836L342.786 134.172H346.407H346.405ZM342.094 149.612C342.123 150.34 342.184 150.918 342.277 151.345C342.371 151.774 342.506 152.072 342.686 152.241C342.866 152.41 343.107 152.494 343.409 152.494C343.711 152.494 343.95 152.41 344.132 152.241C344.311 152.072 344.447 151.774 344.54 151.345C344.634 150.918 344.694 150.34 344.723 149.612C344.752 148.885 344.767 147.971 344.767 146.869C344.767 145.767 344.752 144.853 344.723 144.126C344.694 143.399 344.632 142.821 344.54 142.393C344.447 141.965 344.311 141.666 344.132 141.497C343.952 141.328 343.711 141.244 343.409 141.244C343.107 141.244 342.866 141.328 342.686 141.497C342.506 141.666 342.369 141.964 342.277 142.393C342.184 142.822 342.123 143.4 342.094 144.126C342.066 144.853 342.051 145.767 342.051 146.869C342.051 147.971 342.064 148.887 342.094 149.612Z" fill="white"/>
<path d="M354.619 138.673L357.205 148.774H357.249V138.673H361V155.065H356.603L353.931 144.94H353.887V155.065H350.136V138.673H354.62H354.619Z" fill="white"/>
<path d="M6.80192 142.548C6.80192 142.033 6.70384 141.595 6.50768 141.232C6.31152 140.869 6.00823 140.689 5.60082 140.689C5.14815 140.689 4.81468 140.845 4.60343 141.16C4.39218 141.473 4.28655 141.824 4.28655 142.211C4.28655 142.774 4.45706 143.221 4.79657 143.551C5.13608 143.881 5.5631 144.167 6.07764 144.408C6.59218 144.649 7.14294 144.895 7.73293 145.144C8.32291 145.394 8.87367 145.719 9.38821 146.122C9.90275 146.524 10.3298 147.051 10.6693 147.703C11.0088 148.355 11.1793 149.204 11.1793 150.251C11.1793 152.086 10.6874 153.419 9.70508 154.247C8.72278 155.076 7.30138 155.49 5.44239 155.49C4.5657 155.49 3.79012 155.414 3.11865 155.261C2.44567 155.109 1.87832 154.843 1.4181 154.465C0.956367 154.087 0.604789 153.592 0.363361 152.98C0.121934 152.369 0.0012207 151.612 0.0012207 150.71V150.106H4.08285V150.517C4.08285 151.258 4.21111 151.778 4.46762 152.074C4.72414 152.372 5.05761 152.521 5.46502 152.521C5.90261 152.521 6.2391 152.36 6.47449 152.038C6.70837 151.716 6.82607 151.321 6.82607 150.855C6.82607 150.291 6.6631 149.844 6.33868 149.515C6.01276 149.185 5.60535 148.903 5.11495 148.67C4.62304 148.437 4.09039 148.199 3.517 147.958C2.94211 147.717 2.40946 147.402 1.91906 147.015C1.42715 146.628 1.01974 146.122 0.695324 145.495C0.369397 144.867 0.207943 144.046 0.207943 143.031C0.207943 141.277 0.647038 139.94 1.52372 139.024C2.4004 138.107 3.73127 137.647 5.51481 137.647C7.29836 137.647 8.6926 138.071 9.51647 138.915C10.3403 139.76 10.7523 141.109 10.7523 142.961H6.80645V142.55L6.80192 142.548Z" fill="white"/>
<path d="M12.2234 142.488C12.4196 141.353 12.7455 140.427 13.1982 139.712C13.6524 138.995 14.2484 138.473 14.9893 138.141C15.7302 137.812 16.637 137.646 17.7099 137.646C18.7827 137.646 19.6896 137.812 20.4305 138.141C21.1713 138.471 21.7689 138.995 22.2215 139.712C22.6742 140.428 23.0001 141.354 23.1963 142.488C23.3925 143.623 23.4905 144.996 23.4905 146.606C23.4905 148.215 23.3925 149.588 23.1963 150.724C23.0001 151.859 22.6742 152.785 22.2215 153.5C21.7674 154.217 21.1713 154.727 20.4305 155.033C19.6896 155.338 18.7827 155.492 17.7099 155.492C16.637 155.492 15.7302 155.338 14.9893 155.033C14.2484 154.727 13.6509 154.215 13.1982 153.5C12.744 152.783 12.4196 151.857 12.2234 150.724C12.0273 149.588 11.9292 148.217 11.9292 146.606C11.9292 144.995 12.0273 143.623 12.2234 142.488ZM16.3277 149.491C16.3579 150.255 16.4213 150.864 16.5208 151.314C16.6189 151.764 16.7623 152.079 16.9524 152.255C17.141 152.432 17.3945 152.52 17.7114 152.52C18.0283 152.52 18.2818 152.431 18.4704 152.255C18.659 152.077 18.8023 151.764 18.9019 151.314C19 150.864 19.0649 150.255 19.0951 149.491C19.1252 148.726 19.1403 147.764 19.1403 146.604C19.1403 145.445 19.1252 144.483 19.0951 143.718C19.0649 142.953 19 142.346 18.9019 141.895C18.8038 141.445 18.6605 141.13 18.4704 140.954C18.2818 140.776 18.0283 140.689 17.7114 140.689C17.3945 140.689 17.141 140.778 16.9524 140.954C16.7638 141.131 16.6189 141.445 16.5208 141.895C16.4228 142.346 16.3579 142.953 16.3277 143.718C16.2975 144.483 16.2824 145.445 16.2824 146.604C16.2824 147.764 16.2975 148.726 16.3277 149.491Z" fill="white"/>
<path d="M28.9529 137.985V151.556H34.1451V155.227H24.7355V137.985H28.9529Z" fill="white"/>
<path d="M39.0748 150.421C39.0748 151.258 39.188 151.818 39.4143 152.1C39.6407 152.381 39.95 152.523 40.3438 152.523C40.7377 152.523 41.047 152.383 41.2733 152.1C41.4997 151.818 41.6128 151.258 41.6128 150.421V137.985H45.8303V149.286C45.8303 150.493 45.7096 151.499 45.4681 152.305C45.2267 153.11 44.8751 153.753 44.4134 154.236C43.9517 154.72 43.3813 155.049 42.7008 155.227C42.0202 155.405 41.2341 155.492 40.3423 155.492C39.4506 155.492 38.6825 155.403 37.996 155.227C37.3079 155.049 36.733 154.72 36.2728 154.236C35.811 153.753 35.4595 153.11 35.218 152.305C34.9766 151.501 34.8559 150.493 34.8559 149.286V137.985H39.0733V150.421H39.0748Z" fill="white"/>
<path d="M53.6585 141.22C53.4774 140.866 53.1817 140.689 52.7742 140.689C52.4574 140.689 52.2039 140.778 52.0153 140.954C51.8266 141.131 51.6818 141.445 51.5837 141.895C51.4856 142.346 51.4207 142.953 51.3906 143.718C51.3604 144.483 51.3453 145.445 51.3453 146.604C51.3453 147.764 51.3604 148.726 51.3906 149.491C51.4207 150.255 51.4841 150.864 51.5837 151.314C51.6818 151.764 51.8251 152.079 52.0153 152.255C52.2039 152.432 52.4574 152.52 52.7742 152.52C53.0308 152.52 53.242 152.452 53.4095 152.315C53.5755 152.178 53.7037 151.949 53.7943 151.627C53.8848 151.305 53.9497 150.874 53.9874 150.335C54.0251 149.796 54.0448 149.116 54.0448 148.295H58.1264V149.575C58.1264 150.782 57.9755 151.773 57.6722 152.545C57.3704 153.318 56.969 153.926 56.4711 154.369C55.9716 154.811 55.4013 155.109 54.7585 155.262C54.1157 155.415 53.4548 155.49 52.7742 155.49C51.5958 155.49 50.6271 155.337 49.8726 155.031C49.1166 154.726 48.5266 154.214 48.1041 153.498C47.6801 152.782 47.3904 151.856 47.2305 150.722C47.0705 149.588 46.9921 148.215 46.9921 146.604C46.9921 144.993 47.0856 143.571 47.2757 142.426C47.4644 141.284 47.7858 140.358 48.2399 139.65C48.6926 138.942 49.2902 138.43 50.031 138.117C50.7719 137.804 51.6863 137.646 52.7742 137.646C53.7264 137.646 54.5352 137.775 55.2006 138.033C55.866 138.29 56.4062 138.658 56.8212 139.132C57.2361 139.608 57.5394 140.178 57.728 140.847C57.9166 141.515 58.0117 142.268 58.0117 143.105V144.192H53.9301V143.226C53.9301 142.244 53.8395 141.576 53.6585 141.222V141.22Z" fill="white"/>
<path d="M63.5238 137.985V155.227H59.3064V137.985H63.5238Z" fill="white"/>
<path d="M65.03 142.488C65.2261 141.353 65.552 140.427 66.0047 139.712C66.4589 138.995 67.0549 138.473 67.7958 138.141C68.5367 137.812 69.4435 137.646 70.5164 137.646C71.5892 137.646 72.4961 137.812 73.237 138.141C73.9779 138.471 74.5754 138.995 75.0281 139.712C75.4807 140.428 75.8067 141.354 76.0028 142.488C76.199 143.623 76.2971 144.996 76.2971 146.606C76.2971 148.215 76.199 149.588 76.0028 150.724C75.8067 151.859 75.4807 152.785 75.0281 153.5C74.5739 154.217 73.9779 154.727 73.237 155.033C72.4961 155.338 71.5892 155.492 70.5164 155.492C69.4435 155.492 68.5367 155.338 67.7958 155.033C67.0549 154.727 66.4574 154.215 66.0047 153.5C65.5505 152.783 65.2261 151.857 65.03 150.724C64.8338 149.588 64.7357 148.217 64.7357 146.606C64.7357 144.995 64.8338 143.623 65.03 142.488ZM69.1342 149.491C69.1644 150.255 69.2278 150.864 69.3274 151.314C69.4254 151.764 69.5688 152.079 69.7589 152.255C69.9475 152.432 70.201 152.52 70.5179 152.52C70.8348 152.52 71.0883 152.431 71.2769 152.255C71.4655 152.077 71.6089 151.764 71.7084 151.314C71.8065 150.864 71.8714 150.255 71.9016 149.491C71.9318 148.726 71.9468 147.764 71.9468 146.604C71.9468 145.445 71.9318 144.483 71.9016 143.718C71.8714 142.953 71.8065 142.346 71.7084 141.895C71.6104 141.445 71.467 141.13 71.2769 140.954C71.0883 140.776 70.8348 140.689 70.5179 140.689C70.201 140.689 69.9475 140.778 69.7589 140.954C69.5703 141.131 69.4254 141.445 69.3274 141.895C69.2293 142.346 69.1644 142.953 69.1342 143.718C69.104 144.483 69.089 145.445 69.089 146.604C69.089 147.764 69.104 148.726 69.1342 149.491Z" fill="white"/>
<path d="M82.257 137.985L84.9776 148.61H85.0229V137.985H88.9687V155.227H84.3424L81.5313 144.578H81.486V155.227H77.5402V137.985H82.257Z" fill="white"/>
<path d="M100.263 137.985V141.656H94.89V144.602H99.9237V148.128H94.89V151.558H100.468V155.229H90.6725V137.986H100.263V137.985Z" fill="white"/>
<path d="M108.079 142.548C108.079 142.033 107.981 141.595 107.785 141.232C107.589 140.869 107.285 140.689 106.878 140.689C106.424 140.689 106.092 140.845 105.88 141.16C105.669 141.473 105.564 141.824 105.564 142.211C105.564 142.774 105.734 143.221 106.074 143.551C106.413 143.881 106.84 144.167 107.355 144.408C107.868 144.649 108.42 144.895 109.01 145.144C109.6 145.394 110.151 145.719 110.665 146.122C111.178 146.524 111.607 147.051 111.946 147.703C112.286 148.355 112.456 149.204 112.456 150.251C112.456 152.086 111.964 153.419 110.982 154.247C110 155.076 108.578 155.49 106.719 155.49C105.843 155.49 105.067 155.414 104.396 155.261C103.723 155.109 103.155 154.843 102.695 154.465C102.233 154.087 101.882 153.592 101.64 152.98C101.399 152.369 101.278 151.612 101.278 150.71V150.106H105.36V150.517C105.36 151.258 105.488 151.778 105.745 152.074C106.001 152.372 106.335 152.521 106.742 152.521C107.18 152.521 107.516 152.36 107.751 152.038C107.985 151.716 108.103 151.321 108.103 150.855C108.103 150.291 107.94 149.844 107.616 149.515C107.29 149.185 106.882 148.903 106.39 148.67C105.899 148.437 105.366 148.199 104.792 147.958C104.218 147.717 103.685 147.402 103.195 147.015C102.703 146.628 102.295 146.122 101.969 145.495C101.643 144.867 101.482 144.046 101.482 143.031C101.482 141.277 101.919 139.94 102.798 139.024C103.674 138.107 105.004 137.647 106.789 137.647C108.574 137.647 109.967 138.071 110.79 138.915C111.614 139.76 112.026 141.109 112.026 142.961H108.08V142.55L108.079 142.548Z" fill="white"/>
<path d="M67.9721 67.1855L48.0227 86.1922V67.1855H67.9721Z" fill="#D71213"/>
<path d="M91.6094 67.1855L53.1681 103.812H48.0227V89.4338L71.3717 67.1855H91.6094Z" fill="#B3B3B3"/>
<path d="M115.245 67.1855L76.804 103.812H56.5709L95.0106 67.1855H115.245Z" fill="#D71213"/>
<path d="M138.881 67.1855L100.442 103.812H80.2069L118.647 67.1855H138.881Z" fill="#B3B3B3"/>
<path d="M162.52 67.1855L124.079 103.812H103.842L142.282 67.1855H162.52Z" fill="#D71213"/>
<path d="M186.156 67.1855L147.714 103.812H127.48L165.919 67.1855H186.156Z" fill="#B3B3B3"/>
<path d="M209.791 67.1855L171.35 103.812H151.115L189.556 67.1855H209.791Z" fill="#D71213"/>
<path d="M233.011 67.1855L194.569 103.812H174.335L212.776 67.1855H233.011Z" fill="#B3B3B3"/>
<path d="M256.646 67.1855L218.205 103.812H197.972L236.411 67.1855H256.646Z" fill="#D71213"/>
<path d="M280.285 67.1855L241.844 103.812H221.608L260.047 67.1855H280.285Z" fill="#B3B3B3"/>
<path d="M303.921 67.1855L265.48 103.812H245.245L283.685 67.1855H303.921Z" fill="#D71213"/>
<path d="M312.49 67.1855V81.5414L289.115 103.812H268.88L307.322 67.1855H312.49Z" fill="#B3B3B3"/>
<path d="M312.49 84.7837V103.813H292.518L312.49 84.7837Z" fill="#D71213"/>
<path d="M176.391 1.97479L96.5474 81.6424C94.6871 83.4986 94.6871 86.5082 96.5474 88.3644L177.385 169.024C179.245 170.881 182.262 170.881 184.122 169.024L263.965 89.3567C265.826 87.5004 265.826 84.4909 263.965 82.6347L183.128 1.9748C181.267 0.118567 178.251 0.11856 176.391 1.97479Z" fill="#D71213"/>
<path d="M180.754 171C179.325 171 177.982 170.444 176.971 169.437L96.1335 88.7774C94.0482 86.6967 94.0482 83.3106 96.1335 81.2283L175.977 1.56104C178.062 -0.519696 181.455 -0.519696 183.542 1.56104L264.38 82.2205C266.465 84.3013 266.465 87.6874 264.38 89.7696L184.537 169.437C183.526 170.446 182.183 171 180.754 171ZM179.759 1.16658C178.643 1.16658 177.594 1.60019 176.805 2.38762L96.9619 82.0549C95.3323 83.6795 95.3323 86.3248 96.9619 87.9508L177.799 168.61C178.588 169.398 179.637 169.831 180.754 169.831C181.87 169.831 182.919 169.398 183.708 168.61L263.551 88.943C265.179 87.3185 265.179 84.6732 263.551 83.0471L182.712 2.38762C181.923 1.60019 180.874 1.16658 179.758 1.16658H179.759Z" fill="#1D1D1B"/>
<path d="M180.707 164.244C179.732 164.244 178.757 163.874 178.015 163.133L102.451 87.7356C101.731 87.0174 101.336 86.0644 101.336 85.0496C101.336 84.0348 101.731 83.0803 102.451 82.3636L177.112 7.86504C178.597 6.38353 181.013 6.38353 182.498 7.86504L258.061 83.2625C259.546 84.744 259.546 87.1544 258.061 88.636L183.399 163.135C182.656 163.875 181.681 164.246 180.707 164.246V164.244ZM179.637 161.513C180.227 162.102 181.185 162.102 181.775 161.513L256.438 87.0144C257.028 86.4257 257.028 85.4697 256.438 84.881L180.874 9.48506C180.284 8.89637 179.326 8.89637 178.736 9.48506L104.073 83.9837C103.788 84.2682 103.629 84.6476 103.629 85.0496C103.629 85.4516 103.786 85.831 104.072 86.1156L179.635 161.513H179.637Z" fill="#1D1D1B"/>
<path d="M193.012 85.5526C191.343 84.2066 185.84 73.3587 184.401 77.344C184.41 84.5197 184.458 89.9489 184.435 92.644C184.431 93.1754 184.419 94.1827 185.006 95.1869C185.996 96.8822 187.603 96.7061 188.461 97.7871C190.047 99.7835 187.909 104.603 185.289 107.566C183.922 109.111 179.758 113.819 175.263 112.257C172.195 111.191 170.081 107.589 170.122 103.412L170.248 86.3701C166.425 86.468 162.601 86.5538 158.778 86.6246C154.639 86.7013 150.501 86.7631 146.362 86.8067C145.729 89.967 146.054 92.1576 146.729 93.7807C147.948 96.7106 149.658 96.9485 150.225 99.2927C151.324 103.831 146.088 108.487 145.514 108.999C143.655 110.652 140.391 113.555 136.855 112.441C133.871 111.502 131.75 108.036 131.712 103.918C131.804 94.1857 131.895 84.4535 131.987 74.7213C130.959 71.272 125.951 71.7267 125.713 68.1283C126.841 64.1911 133.858 62.1601 137.472 60.0688C149.606 53.0437 145.698 72.8182 145.83 79.8373C153.856 79.9246 161.883 80.012 169.909 80.0978V73.9941C169.136 73.6538 163.585 71.144 163.796 68.2261C163.9 66.7928 165.278 66.6332 171.14 62.7186C175.429 59.855 177.082 58.2967 179.777 58.5346C181.066 58.649 182.09 59.1278 182.765 59.5253C184.416 61.4961 184.635 64.1731 184.422 67.1993C186.887 63.9126 190.75 62.4235 194.031 63.4097C196.4 64.1219 197.758 65.912 198.278 66.6949C204.966 78.0592 211.655 89.422 218.342 100.786C219.746 98.4631 221.835 94.3965 222.724 88.9552C223.482 84.315 224.719 76.7433 219.957 71.4511C216.83 67.9777 212.448 66.9614 209.586 66.6708C208.937 66.3005 208.124 65.6937 208.021 64.8461C207.858 63.497 209.637 62.6855 213.583 59.7496C217.733 56.6646 218.993 55.162 221.223 55.3999C222.13 55.4963 222.842 55.8441 223.299 56.1166C236.653 60.4452 237.053 80.0421 231.201 91.0465C229.683 94.8978 227.679 99.1963 225.013 103.707C223.455 106.343 221.86 108.73 220.296 110.874C218.846 113.007 216.53 115.674 213.754 115.621C210.36 115.558 208.109 111.464 203.267 103.069C201.103 99.3168 197.59 93.2628 193.012 85.5526Z" fill="white"/>
</g>
<defs>
<clipPath id="clip0_359_15555">
<rect width="361" height="171" fill="white"/>
</clipPath>
</defs>
</svg>
