<svg xmlns="http://www.w3.org/2000/svg" xmlns:xlink="http://www.w3.org/1999/xlink" id="Capa_4" x="0px" y="0px" width="3589.436px" height="2881.152px" viewBox="0 0 3589.436 2881.152" xml:space="preserve">
<g>
	<path fill="none" stroke="#094C8E" d="M2481.966,1304.428"></path>
	<g>
		<defs>
			<rect id="SVGID_1_" x="861.692" y="1190.712" width="1852.251" height="1254.593"></rect>
		</defs>
		<clipPath id="SVGID_2_">
			<use xlink:href="#SVGID_1_"></use>
		</clipPath>
		<path clip-path="url(#SVGID_2_)" fill="#35648E" d="M1791.494,1614.702c-91.133,0-155.596,60.803-155.596,60.803l-347.114,342.99    l203.867,125.757v282.085c0,0-247.388-86.782-381.927-177.915c-134.543-91.135-231.561-230.465-231.561-230.465l644.23-642.91    l94.716-94.523c0,0,72.675-76.361,159.494-76.361h20.507c86.796,0,159.47,76.361,159.47,76.361l738.907,737.434    c0,0-96.962,139.33-231.548,230.465c-19.72,13.345-41.83,26.598-65.33,39.57c-136.438,75.152-316.568,138.345-316.568,138.345    v-282.085l203.836-125.757l-347.063-342.99c0,0-64.48-60.803-155.63-60.803"></path>
		<path clip-path="url(#SVGID_2_)" fill="none" stroke="#35648E" d="M1791.494,1614.702c-91.133,0-155.596,60.803-155.596,60.803    l-347.114,342.99l203.867,125.757v282.085c0,0-247.388-86.782-381.927-177.915c-134.543-91.135-231.561-230.465-231.561-230.465    l644.23-642.91l94.716-94.523c0,0,72.675-76.361,159.494-76.361h20.507c86.796,0,159.47,76.361,159.47,76.361l738.907,737.434    c0,0-96.962,139.33-231.548,230.465c-19.72,13.345-41.83,26.598-65.33,39.57c-136.438,75.152-316.568,138.345-316.568,138.345    v-282.085l203.836-125.757l-347.063-342.99c0,0-64.48-60.803-155.63-60.803"></path>
	</g>
	<path fill="none" stroke="#094C8E" d="M1837.78,1947.329"></path>
	<g>
		<defs>
			<rect id="SVGID_3_" x="536.185" y="263.447" width="2517.066" height="2517.107"></rect>
		</defs>
		<clipPath id="SVGID_4_">
			<use xlink:href="#SVGID_3_"></use>
		</clipPath>
		<g clip-path="url(#SVGID_4_)">
			<defs>
				<rect id="SVGID_5_" x="536.185" y="263.462" width="2517.066" height="2517.091"></rect>
			</defs>
			<clipPath id="SVGID_6_">
				<use xlink:href="#SVGID_5_"></use>
			</clipPath>
			<g clip-path="url(#SVGID_6_)">
				<g>
					<defs>
						<rect id="SVGID_7_" x="648.703" y="816.327" width="1091.797" height="848.359"></rect>
					</defs>
					<clipPath id="SVGID_8_">
						<use xlink:href="#SVGID_7_"></use>
					</clipPath>
					<path clip-path="url(#SVGID_8_)" fill="#094C8E" d="M1018.074,1047.901H710.248c0,0-52.788,199.626-47.747,334.188       c5.333,143.155,29.931,264.772,29.931,264.772l222.368,2.376l78.144,0.783l112.239,1.163l616.407-610.858l-199.714-205.08       l-444.331,424.041l-133.268,127.161c0,0,3.159-94.397,16.14-159.505C973.452,1161.818,1018.074,1047.901,1018.074,1047.901"></path>
					<path clip-path="url(#SVGID_8_)" fill="#094C8E" d="M1018.074,1047.901H710.248c0,0-52.788,199.626-47.747,334.188       c5.333,143.155,29.931,264.772,29.931,264.772l222.368,2.376l78.144,0.783l112.239,1.163l616.407-610.858l-199.714-205.08       l-444.331,424.041l-133.268,127.161c0,0,3.159-94.397,16.14-159.505C973.452,1161.818,1018.074,1047.901,1018.074,1047.901z"></path>
				</g>
				<g>
					<defs>
						<rect id="SVGID_9_" x="648.703" y="816.327" width="1091.797" height="848.359"></rect>
					</defs>
					<clipPath id="SVGID_10_">
						<use xlink:href="#SVGID_9_"></use>
					</clipPath>
					<path clip-path="url(#SVGID_10_)" fill="#35648E" d="M1018.074,1047.901H710.248c0,0-52.788,199.626-47.747,334.188       c5.333,143.155,29.931,264.772,29.931,264.772l222.368,2.376l78.144,0.783l112.239,1.163l616.407-610.858l-199.714-205.08       l-444.331,424.041l-133.268,127.161c0,0,3.159-94.397,16.14-159.505C973.452,1161.818,1018.074,1047.901,1018.074,1047.901"></path>
					<path clip-path="url(#SVGID_10_)" fill="none" stroke="#35648E" d="M1018.074,1047.901H710.248       c0,0-52.788,199.626-47.747,334.188c5.333,143.155,29.931,264.772,29.931,264.772l222.368,2.376l78.144,0.783l112.239,1.163       l616.407-610.858l-199.714-205.08l-444.331,424.041l-133.268,127.161c0,0,3.159-94.397,16.14-159.505       C973.452,1161.818,1018.074,1047.901,1018.074,1047.901z"></path>
				</g>
				<g>
					<defs>
						<rect id="SVGID_11_" x="648.703" y="816.327" width="1091.797" height="848.359"></rect>
					</defs>
					<clipPath id="SVGID_12_">
						<use xlink:href="#SVGID_11_"></use>
					</clipPath>
				</g>
			</g>
			<g clip-path="url(#SVGID_6_)">
				<defs>
					<rect id="SVGID_13_" x="1845.352" y="816.327" width="1091.746" height="848.359"></rect>
				</defs>
				<clipPath id="SVGID_14_">
					<use xlink:href="#SVGID_13_"></use>
				</clipPath>
				<path clip-path="url(#SVGID_14_)" fill="#35648E" d="M2567.738,1047.901h307.819c0,0,6.295,23.868,14.399,60.648      c15.186,69.648,36.684,185.505,33.363,273.54c-5.356,143.155-29.944,264.772-29.944,264.772l-412.778,4.322l-341.267-338.283      l-275.024-272.575l199.688-205.08l577.527,551.202c0,0-3.15-94.397-16.132-159.505      C2612.36,1161.818,2567.738,1047.901,2567.738,1047.901"></path>
				<path clip-path="url(#SVGID_14_)" fill="none" stroke="#35648E" d="M2567.738,1047.901h307.819c0,0,6.295,23.868,14.399,60.648      c15.186,69.648,36.684,185.505,33.363,273.54c-5.356,143.155-29.944,264.772-29.944,264.772l-412.778,4.322l-341.267-338.283      l-275.024-272.575l199.688-205.08l577.527,551.202c0,0-3.15-94.397-16.132-159.505      C2612.36,1161.818,2567.738,1047.901,2567.738,1047.901z"></path>
			</g>
			<g clip-path="url(#SVGID_6_)">
				<defs>
					<rect id="SVGID_15_" x="1561.285" y="594.276" width="454.714" height="383.968"></rect>
				</defs>
				<clipPath id="SVGID_16_">
					<use xlink:href="#SVGID_15_"></use>
				</clipPath>
				<path clip-path="url(#SVGID_16_)" fill="#35648E" d="M1877.278,869.544l-91.816,89.745l-206.726-208.317      c0,0,49.671-70.913,118.458-112.976c28.907-17.688,61.29-30.267,94.77-30.267c112.852,0,206.754,143.243,206.754,143.243      L1877.278,869.544z"></path>
				<path clip-path="url(#SVGID_16_)" fill="#35648E" stroke="#35648E" d="M1877.278,869.544l-91.816,89.745l-206.726-208.317      c0,0,49.671-70.913,118.458-112.976c28.907-17.688,61.29-30.267,94.77-30.267c112.852,0,206.754,143.243,206.754,143.243      L1877.278,869.544z"></path>
			</g>
		</g>
	</g>
	<path fill="none" stroke="#094C8E" d="M2481.966,1344.789"></path>
	<path fill="none" stroke="#094C8E" d="M1837.78,1987.695"></path>
</g>
</svg>