<svg xmlns="http://www.w3.org/2000/svg" width="216" height="163" viewBox="0 0 216 163" fill="none"><path d="M54.7245 63.5276V77.1407H0V3.9024H16.4264V63.5276H54.7245Z" fill="#B8CECF"></path><path d="M131.593 2.54109V19.9658L86.2161 39.8409L131.593 59.716V77.1407H67.3393V63.1646H107.725V62.9831L67.3393 45.2861V34.4864L107.997 16.6079V16.3357H67.3393V2.54109H131.593Z" fill="#B8CECF"></path><path d="M184.956 16.7894V0C203.651 2.72261 215.177 17.8785 215.177 37.5721C215.177 61.3495 199.931 77.1407 176.879 77.1407C153.918 77.1407 138.672 61.3495 138.672 37.5721C138.672 17.8785 150.197 2.72261 168.802 0V16.7894C158.275 19.7843 153.192 27.2261 153.192 37.4813C153.192 51.2759 162.631 60.5328 176.879 60.5328C191.218 60.5328 200.657 51.3666 200.657 37.4813C200.657 27.2261 195.574 19.7843 184.956 16.7894Z" fill="#B8CECF"></path><path d="M32.5806 11.0719C32.5806 6.35275 36.3923 2.54109 41.1115 2.54109C45.8307 2.54109 49.6423 6.35275 49.6423 11.0719C49.6423 15.7911 45.8307 19.6028 41.1115 19.6028C36.3923 19.6028 32.5806 15.7004 32.5806 11.0719Z" fill="#B8CECF"></path><path d="M160.543 98.7401V85.127H215.268V158.456H198.842V98.7401H160.543Z" fill="#B8CECF"></path><path d="M83.675 159.817V142.302L128.961 122.427L83.675 102.552V85.127H147.929V99.1031H107.543V99.2846L147.929 116.982V127.872L107.271 145.66V145.932H147.929V159.817H83.675Z" fill="#B8CECF"></path><path d="M30.221 145.569V162.358C11.5257 159.545 0 144.389 0 124.696C0 100.918 15.2466 85.127 38.2981 85.127C61.2588 85.127 76.5054 100.918 76.5054 124.696C76.5054 144.389 64.9797 159.545 46.3752 162.268V145.478C56.9026 142.483 61.9848 135.042 61.9848 124.786C61.9848 110.992 52.5464 101.735 38.2981 101.735C23.959 101.735 14.5206 110.901 14.5206 124.786C14.5206 135.042 19.6936 142.483 30.221 145.569Z" fill="#B8CECF"></path><path d="M182.597 151.287C182.597 156.006 178.785 159.817 174.066 159.817C169.347 159.817 165.535 156.006 165.535 151.287C165.535 146.567 169.347 142.756 174.066 142.756C178.785 142.756 182.597 146.567 182.597 151.287Z" fill="#B8CECF"></path></svg>