<?xml version="1.0" encoding="UTF-8"?>
<svg id="Capa_2" data-name="Capa 2" xmlns="http://www.w3.org/2000/svg" viewBox="0 0 1000 907.38">
  <defs>
    <style>
      .cls-1 {
        fill: #000;
      }

      .cls-1, .cls-2 {
        stroke-width: 0px;
      }

      .cls-2 {
        fill: #fff;
      }
    </style>
  </defs>
  <g id="Capa_1-2" data-name="Capa 1">
    <g>
      <rect class="cls-1" width="1000" height="907.38"/>
      <g>
        <g>
          <path class="cls-2" d="M135.08,748.58h42.37v54.66c-5.46,0-10.91,0-16.36-.01v-12.71c-2.02,2.81-6,7.57-12.58,11.09-7.88,4.22-15.1,4.32-18.94,4.32-24.44,0-46.61-17.52-46.61-53.11,0-27.54,15.25-53.67,49.29-53.67h.28c31.07,0,43.36,20.2,44.49,34.18h-21.19c0-3.95-7.2-16.67-22.18-16.67s-29.1,10.45-29.1,36.44c0,27.68,15.11,34.89,29.52,34.89,4.66,0,20.2-1.84,24.58-22.32h-23.59v-17.09Z"/>
          <path class="cls-2" d="M340.72,699.15c13.42,0,48.73,5.79,48.73,53.39s-35.31,53.39-48.73,53.39-48.73-5.79-48.73-53.39,35.31-53.39,48.73-53.39ZM340.72,787.99c11.44,0,27.54-7.06,27.54-35.45s-16.1-35.45-27.54-35.45-27.54,7.06-27.54,35.45,16.1,35.45,27.54,35.45Z"/>
          <path class="cls-2" d="M487.61,767.79c0,26.7-16.1,38.14-41.67,38.14-9.32,0-23.16-2.26-32.2-12.29-5.51-6.21-7.63-14.41-7.91-24.58v-67.23h21.61v65.82c0,14.12,8.19,20.34,18.08,20.34,14.55,0,20.48-7.06,20.48-19.35v-66.81h21.61v65.96Z"/>
          <path class="cls-2" d="M529.56,803.24h-21.19v-101.41h46.33c19.63,0,31.5,12.57,31.5,32.49,0,9.18-5.09,32.35-32.35,32.35h-24.29v36.58ZM549.19,749.15c15.82,0,15.82-11.3,15.82-15.82,0-9.89-5.51-13.98-18.64-13.98h-16.81v29.8h19.63Z"/>
          <path class="cls-2" d="M197.15,701.83h51.27c26.98,0,31.92,19.92,31.92,28.67,0,11.16-5.65,20.76-15.68,24.15,2.17.74,5.55,2.23,8.29,5.38,4.36,4.99,4.83,11.23,5.4,19.47.09,1.24.09,5.63.1,14.35,0,3.93,0,7.18,0,9.39-7.21-.01-14.42-.02-21.62-.04.04-2.17.07-5.2,0-8.82-.05-2.82-.13-6.95-.52-11.62-.74-8.96-1.04-13.49-3.09-15.66-2.32-2.46-6.37-3.55-13.44-3.55h-21.89v39.69h-20.76v-101.41ZM242.78,746.46c11.02,0,16.38-3.81,16.38-13.84,0-5.37-2.4-13.28-14.83-13.28h-26.41v27.12h24.86Z"/>
        </g>
        <g>
          <path class="cls-2" d="M87.48,571.13h44.77c34.18,0,41.24,29.1,41.24,48.31,0,21.75-8.62,53.11-42.09,53.11h-43.93v-101.41ZM108.25,655.03h20.62c17.23,0,23.02-17.37,23.02-34.04,0-29.94-14.27-32.35-23.31-32.35h-20.34v66.39Z"/>
          <path class="cls-2" d="M251.32,571.13h19.77v101.41h-21.19l-41.38-72.32h-.28v72.32h-19.77v-101.41h22.32l40.26,70.62h.28v-70.62Z"/>
          <path class="cls-2" d="M305.83,672.54h-22.32l36.16-101.41h24.44l35.74,101.41h-23.02l-6.5-20.9h-37.43l-7.06,20.9ZM318.55,634.12h25.85l-12.57-40.11h-.28l-12.99,40.11Z"/>
        </g>
        <g>
          <path class="cls-2" d="M168.7,506.39c0,26.7-16.1,38.14-41.67,38.14-9.32,0-23.16-2.26-32.2-12.29-5.51-6.21-7.63-14.41-7.91-24.58v-67.23h21.61v65.82c0,14.12,8.19,20.34,18.08,20.34,14.55,0,20.48-7.06,20.48-19.35v-66.81h21.61v65.96Z"/>
          <path class="cls-2" d="M189.45,440.43h51.27c26.98,0,31.92,19.92,31.92,28.67,0,11.16-5.65,20.76-15.68,24.15,2.17.74,5.55,2.23,8.29,5.38,4.36,4.99,4.83,11.23,5.4,19.47.09,1.24.09,5.63.1,14.35,0,3.93,0,7.18,0,9.39-7.21-.01-14.42-.02-21.62-.04.04-2.17.07-5.2,0-8.82-.05-2.82-.13-6.95-.52-11.62-.74-8.96-1.04-13.49-3.09-15.66-2.32-2.46-6.37-3.55-13.44-3.55h-21.89v39.69h-20.76v-101.41ZM235.08,485.06c11.02,0,16.38-3.81,16.38-13.84,0-5.37-2.4-13.28-14.83-13.28h-26.41v27.12h24.86Z"/>
          <path class="cls-2" d="M291.43,440.43h49.29c24.86,0,31.21,15.54,31.21,25.99,0,14.55-8.19,18.64-12.43,20.76,12.43,4.66,15.68,14.55,15.68,24.58,0,8.05-3.39,15.68-8.76,20.9-5.79,5.65-11.3,9.18-32.06,9.18h-42.94v-101.41ZM311.76,480.12h24.86c8.33,0,14.97-3.25,14.97-11.3s-5.93-10.88-15.54-10.88h-24.29v22.18ZM311.76,524.33h25.99c10.31,0,16.24-4.52,16.24-14.83,0-8.9-7.63-12.29-15.25-12.29h-26.98v27.12Z"/>
          <path class="cls-2" d="M403.57,541.84h-22.32l36.16-101.41h24.44l35.74,101.41h-23.02l-6.5-20.9h-37.43l-7.06,20.9ZM416.28,503.42h25.85l-12.57-40.11h-.28l-12.99,40.11Z"/>
          <path class="cls-2" d="M553,440.43h19.77v101.41h-21.19l-41.38-72.32h-.28v72.32h-19.77v-101.41h22.32l40.26,70.62h.28v-70.62Z"/>
        </g>
        <rect class="cls-2" x="87.93" y="400.8" width="79.56" height="14.09"/>
      </g>
    </g>
  </g>
</svg>