<?xml version="1.0" encoding="utf-8"?>
<!-- Generator: Adobe Illustrator 26.0.0, SVG Export Plug-In . SVG Version: 6.00 Build 0)  -->
<svg version="1.1" id="Layer_1" xmlns="http://www.w3.org/2000/svg" xmlns:xlink="http://www.w3.org/1999/xlink" x="0px" y="0px"
	 viewBox="0 0 197 36" style="enable-background:new 0 0 197 36;" xml:space="preserve">
<style type="text/css">
	.st0{fill:#FCFCFC;}
	.st1{fill:#FDFDFD;}
	.st2{fill:#214090;}
	.st3{fill:#060909;}
	.st4{fill:#EDC611;}
	.st5{fill:#FFFFFF;}
	.st6{fill:#175D41;}
	.st7{fill:#929497;}
</style>
<g>
	<path class="st0" d="M172.63,16.11c-3.36,2.6-6.33,5.51-7.49,9.87c-0.72-0.73-0.97-1.6-1.22-2.47c-0.39-1.38-0.45-2.81-0.32-4.22
		c0.22-2.4,0.67-4.75,2.11-6.77c1.62-2.29,3.53-4.27,6.15-5.44c1.3-0.58,2.67-0.9,4.08-1.07c1.67-0.19,3.34-0.26,5.01-0.35
		c2.4-0.13,4.77-0.46,7.05-1.32c1.79-0.68,3.43-1.61,4.98-2.72c0.06-0.04,0.11-0.1,0.23-0.02c-0.64,0.95-1.18,1.96-1.67,3
		c-0.92,1.95-1.57,4-2.14,6.07c-0.61,2.19-1.18,4.4-1.9,6.55c-0.83,2.49-1.85,4.9-3.61,6.95c-1.81,2.11-4.1,3.31-6.76,3.9
		c-1.94,0.43-3.91,0.56-5.87,0.43c-1.27-0.09-2.56-0.11-3.81-0.42c-0.14-0.03-0.29,0-0.44,0c-0.35,2.39-0.35,3.87,0.81,7.21
		c-1.31-0.1-1.59-0.42-1.78-1.93c-0.16-1.3-0.29-2.61-0.22-3.92c0.11-1.9,0.49-3.74,1.27-5.49c1.05-2.35,2.52-4.41,4.26-6.3
		C171.8,17.14,172.29,16.69,172.63,16.11z M173.18,15.71c-0.03-0.03-0.06-0.07-0.08-0.06c-0.04,0.01-0.08,0.04-0.12,0.07
		c0.02,0.02,0.05,0.07,0.06,0.06C173.09,15.77,173.13,15.74,173.18,15.71z"/>
	<path class="st1" d="M173.18,15.71c-0.05,0.03-0.09,0.06-0.14,0.07c-0.01,0-0.04-0.04-0.06-0.06c0.04-0.02,0.08-0.06,0.12-0.07
		C173.12,15.65,173.15,15.69,173.18,15.71z"/>
	<path class="st2" d="M186.31,20.32c-0.46,1.07-1.01,2.06-1.65,2.99c-0.1,0.14-0.24,0.14-0.38,0.14c-5.62,0-11.23,0-16.83,0
		c-0.11-0.15-0.01-0.24,0.04-0.33c0.46-0.88,0.98-1.73,1.55-2.53c0.14-0.19,0.27-0.3,0.53-0.3c5.52,0.01,11.05,0.01,16.57,0.01
		C186.17,20.29,186.2,20.3,186.31,20.32z"/>
	<path class="st2" d="M181.35,26.5c-1.65,1.14-3.48,1.71-5.41,1.99c-2.94,0.43-5.87,0.2-8.8-0.23c-0.06-0.01-0.12-0.01-0.25-0.03
		c-0.06,0.5-0.11,0.98-0.17,1.48c-0.3,0-0.57,0-0.88,0c0.03-1.04,0.19-2.03,0.42-3.02c0.06-0.26,0.25-0.2,0.41-0.2
		c0.9,0,1.81,0.01,2.71,0.01C173.38,26.5,177.37,26.5,181.35,26.5z"/>
	<path class="st2" d="M190.28,7.74c-0.3,1-0.59,1.94-0.87,2.88c-0.04,0.14-0.08,0.26-0.28,0.26c-1.65-0.01-3.3,0-4.99,0
		c0-1.07,0-2.09,0-3.14C186.19,7.74,188.21,7.74,190.28,7.74z"/>
	<path class="st2" d="M187.53,17.16c-1.16,0-2.25,0-3.38,0c0-1.03,0-2.06,0-3.12c1.42,0,2.83,0,4.3,0
		C188.13,15.11,187.83,16.13,187.53,17.16z"/>
	<path class="st2" d="M163.79,23.43c-0.24-1.04-0.32-2.05-0.3-3.1c1.53,0,3.04,0,4.61,0c-0.25,0.33-0.49,0.62-0.73,0.93
		c-0.46,0.6-0.85,1.25-1.21,1.92c-0.07,0.12-0.1,0.26-0.29,0.26C165.19,23.43,164.5,23.43,163.79,23.43z"/>
	<path class="st3" d="M178.77,7.14c-0.37,0.34-0.55,0.72-0.43,1.24c0.11,0.47,0,0.95-0.16,1.4c0.22,0.09,0.31-0.11,0.47-0.1
		c-0.24,0.26-0.51,0.49-0.87,0.58c0.5-0.69,0.6-1.44,0.34-2.24c-0.14,0.79-0.3,1.57-0.7,2.4c0.2-0.1,0.29-0.13,0.37-0.17
		c-0.15,0.11-0.31,0.23-0.49,0.36c0.24,0.17,0.37,0.27,0.61,0.44c0.44-0.48,0.89-0.97,1.33-1.45c0.03,0.03,0.06,0.06,0.09,0.09
		c-0.49,0.43-0.98,0.86-1.42,1.25c0.08,0.3,0.19,0.42,0.31,0.55c0.25-0.13,0.3-0.44,0.52-0.59c0.03,0.23-0.21,0.33-0.26,0.53
		c-0.01,0.04-0.01,0.08-0.02,0.11c0.04-0.01,0.08-0.02,0.12-0.02c0.22,0,0.4-0.19,0.63-0.14c-0.13,0.19-0.45,0.09-0.55,0.35
		c0.33,0.08,0.64,0.13,0.93-0.06l0.01,0.02c-0.11,0.11-0.12,0.2,0.06,0.24c0.15,0.03,0.3,0.06,0.45,0.08c0.01,0,0.03,0.01,0.04,0.02
		c-0.02,0.02-0.04,0.03-0.06,0.05c-0.58-0.02-1.14-0.27-1.76-0.24c0.07,0.24-0.03,0.52,0.32,0.52c0.72,0,1.45,0,2.17-0.01
		c0.16,0,0.2-0.07,0.08-0.19c0.44,0.07,0.88,0.14,1.32,0.21c0,0.04,0,0.07,0,0.11c-0.41,0.06-0.82,0.13-1.23,0.19
		c0.06-0.18-0.07-0.18-0.17-0.18c-0.78,0-1.56,0-2.34,0c-0.08,0.2-0.18,0.35-0.07,0.54c0.41,0.02,0.79-0.22,1.21-0.1
		c-0.04,0.05-0.08,0.1-0.12,0.15c-0.34-0.11-0.65-0.02-0.96,0.11c0.02,0.15,0.21,0.13,0.19,0.28c-0.41,0.02-0.08,0.21-0.04,0.27
		c0.33,0.46,1.59,0.65,2.2,0.33c-0.75-0.14-1.5-0.22-2.17-0.6c0.2-0.05,0.36,0.08,0.54,0.14c0.59,0.2,1.2,0.29,1.83,0.28
		c-0.07-0.03-0.14-0.07-0.21-0.1c0.53-0.01,0.86,0.35,0.88,0.94l0.02,0.01c-0.32-0.37-0.69-0.54-1.21-0.43
		c-0.48,0.1-0.97,0.03-1.41-0.15c-0.14,0.09-0.04,0.18-0.04,0.27c-0.41-0.24-0.51-0.74-0.85-1.04c-0.15-0.02-0.14,0.21-0.29,0.18
		l0.01,0.01c0.06-0.14,0.13-0.28,0.19-0.43c0.52-1.29-0.45-2.63-1.84-2.54c-0.61,0.04-1.08,0.35-1.48,0.78l0.01,0.01
		c0.05-0.11,0.1-0.22,0.17-0.37c-0.24-0.22-0.47-0.45-0.72-0.66c-0.31-0.26-0.5-0.68-0.96-0.76c-0.01-0.1-0.01-0.19-0.02-0.29
		c0.66,0.48,1.14,1.15,1.79,1.68c0.14-0.1,0.28-0.19,0.42-0.29c-0.04-0.1-0.08-0.18-0.12-0.26c0.13,0.03,0.23,0.03,0.17-0.14
		c-0.08-0.23-0.17-0.47-0.26-0.7l-0.01,0.01c0.22,0.04,0.19,0.26,0.26,0.39c0.07,0.15,0.1,0.32,0.24,0.44
		c0.2,0.18,0.57,0.12,0.58-0.12c0.02-0.79,0.01-1.59,0.01-2.38c-0.05-0.01-0.1-0.01-0.16-0.02c-0.1,0.55-0.06,1.12-0.3,1.66
		c-0.33-0.16-0.41-0.47-0.53-0.75c0.24,0.09,0.23,0.38,0.46,0.56c0.21-0.45,0.25-0.92,0.33-1.35c0.09-0.44,0.16-0.9,0.31-1.35
		c0.14,0.78,0.29,1.55,0.43,2.33c0.03,0.15-0.01,0.32,0.19,0.38c-0.15,0.36,0,0.68,0.1,1.05c0.45-0.67,0.71-1.61,0.64-2.29
		c-0.28,0.33-0.2,0.84-0.62,1.02c0.32-0.44,0.43-0.98,0.67-1.46c0.2-0.39,0.44-0.55,0.84-0.56L178.77,7.14z M177.11,10.52
		c-0.16-0.85-0.31-1.68-0.46-2.5c-0.04,0-0.08,0.01-0.12,0.01c0,0.68,0.02,1.36-0.01,2.05C176.51,10.47,176.68,10.58,177.11,10.52z"
		/>
	<path class="st3" d="M176.92,15.84c-0.13,0.78-0.26,1.57-0.38,2.35c-0.03,0-0.07,0-0.1,0.01c-0.11-0.6-0.22-1.2-0.34-1.81
		c-0.04-0.22-0.08-0.43-0.11-0.65c-0.04-0.25-0.15-0.17-0.28-0.07c0.21-0.4,0.2-0.8-0.04-1.26c-0.38,0.84-0.73,1.6-0.6,2.49
		c0,0.53-0.22,0.74-0.96,0.85c0.57-0.38,0.58-0.85,0.49-1.34c0.07,0.15,0.14,0.3,0.23,0.5c0.16-0.77,0.23-1.52,0.58-2.19
		c0.1-0.2-0.06-0.18-0.18-0.2l0.01,0.01c0.05-0.16,0.28-0.15,0.29-0.35c-0.13-0.09-0.24-0.23-0.44-0.26
		c-0.23,0.22-0.49,0.41-0.66,0.7c-0.14,0.01-0.13,0.27-0.33,0.2c0.19-0.44,0.68-0.62,0.91-1.07c-0.1-0.13-0.2-0.25-0.32-0.41
		c-0.09,0.1-0.15,0.17-0.21,0.24c-0.01-0.09-0.02-0.18-0.03-0.26c-0.41,0.03-0.71,0.35-1.12,0.35c0.27-0.24,0.68-0.25,0.96-0.53
		c-0.31-0.09-0.57-0.05-0.84-0.04c-0.24-0.29-0.61-0.17-0.91-0.28c-0.18-0.06-0.36-0.08-0.55-0.12c0.11-0.11,0.23-0.04,0.35-0.02
		c0.73,0.1,1.45,0.32,2.21,0.36c0.01-0.23,0.01-0.4-0.15-0.54c-0.72,0-1.44,0-2.17,0c-0.14,0-0.34-0.07-0.35,0.19
		c-0.39-0.07-0.79-0.14-1.18-0.21c0.77-0.15,1.48-0.49,2.27-0.42c-0.3,0.13-0.65,0.07-1.01,0.29c0.89,0,1.7,0,2.5,0
		c0.22-0.41,0.04-0.7-0.28-0.86c-0.66-0.34-1.37-0.53-2.12-0.5c0.09-0.2,0.25-0.12,0.4-0.11c0.65,0.07,1.27,0.28,1.89,0.53
		c0.04-0.21-0.13-0.28-0.17-0.41c0.23,0.01,0.25,0.22,0.35,0.35c0.11,0.15,0.2,0.16,0.32,0.03c0,0-0.01-0.01-0.01-0.01
		c0.05,0.17-0.08,0.3-0.13,0.44c-0.35,1.05,0.25,2.15,1.32,2.41c0.79,0.19,1.39-0.15,1.94-0.66c0,0-0.01-0.01-0.01-0.01
		c-0.14,0.44,0.38,0.53,0.48,0.85c-0.03,0.03-0.07,0.06-0.1,0.09c-0.15-0.22-0.3-0.44-0.43-0.64c-0.27,0.12-0.43,0.21-0.53,0.35
		c0.19,0.28,0.54,0.31,0.67,0.6l0.01-0.01c-0.25-0.05-0.42-0.23-0.62-0.35c-0.11-0.04-0.16-0.01-0.09,0.11
		c0.05,0.18,0.1,0.35,0.15,0.53c-0.23-0.06-0.11-0.37-0.34-0.45c-0.14,0.3-0.1,0.58-0.01,0.87c-0.03-0.05-0.06-0.11-0.09-0.16
		c-0.29-0.32,0.14-0.68-0.08-1.05c-0.16,0.12-0.47-0.02-0.47,0.33c-0.01,0.77,0,1.54,0,2.44C176.79,16.6,176.68,16.17,176.92,15.84z
		 M176.39,14.44c-0.18-0.04-0.34-0.12-0.52,0.06c0.14,0.8,0.29,1.62,0.44,2.44c0.03,0,0.05-0.01,0.08-0.01
		C176.39,16.11,176.39,15.3,176.39,14.44z"/>
	<path class="st2" d="M165.89,32.41c0.41,0,0.73,0,1.07,0c0.3,1.02,0.6,2.03,0.91,3.05c-1.22-0.13-1.55-0.44-1.75-1.6
		C166.04,33.4,165.97,32.93,165.89,32.41z"/>
	<path class="st4" d="M175.43,8.84c0.12,0.28,0.2,0.58,0.53,0.75c0.24-0.54,0.2-1.11,0.3-1.66c0.05,0.01,0.1,0.01,0.16,0.02
		c0,0.79,0.02,1.59-0.01,2.38c-0.01,0.24-0.38,0.3-0.58,0.12c-0.14-0.12-0.16-0.29-0.24-0.44c-0.07-0.14-0.04-0.35-0.26-0.39
		c-0.03-0.35-0.22-0.62-0.47-0.86c-0.02-0.1-0.04-0.19-0.18-0.16c0.04,0.07,0.06,0.17,0.18,0.15c0.06,0.34,0.3,0.58,0.47,0.86
		c0.09,0.23,0.18,0.46,0.26,0.7c0.06,0.17-0.04,0.18-0.17,0.14l0.01,0.01c-0.15-0.12-0.27-0.29-0.49-0.29l0.01,0.01
		c-0.22-0.39-0.09-0.88-0.39-1.24l0.01,0.01c0-0.09,0-0.17-0.1-0.2l0.01,0.01c0-0.14-0.04-0.26-0.2-0.3l0.01,0.01
		c0.01-0.11,0.01-0.21-0.15-0.2c-0.07-0.15-0.15-0.29-0.1-0.47c0.18,0.05,0.22,0.35,0.47,0.3l0.04,0.01c0,0,0.01,0.04,0.01,0.04
		c0.18,0.14,0.36,0.27,0.59,0.31l-0.01-0.01c-0.04,0.11,0.02,0.16,0.11,0.2l-0.01-0.01c0.05,0.09,0.08,0.18,0.2,0.2L175.43,8.84z
		 M174.62,8.46c0.01-0.01,0.02-0.02,0.03-0.03c-0.01-0.01-0.02-0.02-0.03-0.03c-0.01,0.01-0.02,0.03-0.03,0.04
		C174.6,8.45,174.61,8.46,174.62,8.46z"/>
	<path class="st4" d="M178.08,14.81c-0.13-0.29-0.48-0.32-0.67-0.6c0.11-0.14,0.26-0.22,0.53-0.35c0.13,0.19,0.28,0.42,0.43,0.64
		c0.03-0.03,0.07-0.06,0.1-0.09c-0.1-0.31-0.62-0.41-0.48-0.85c0.15,0.03,0.14-0.2,0.29-0.18c0.34,0.29,0.44,0.79,0.85,1.04
		c0,0,0-0.01,0-0.01c0.07,0.39,0.35,0.69,0.53,1.03c0.13,0.26,0.19,0.27-0.13,0.39c-0.32-0.23-0.65-0.45-0.97-0.68
		C178.48,14.93,178.3,14.85,178.08,14.81z"/>
	<path class="st4" d="M177.79,10.27c0.36-0.09,0.63-0.32,0.87-0.58c0.25-0.21,0.48-0.46,0.85-0.37c0.18,0.17,0.17-0.09,0.26-0.11
		l-0.01-0.01c0.01,0.04,0.02,0.09,0.03,0.13c-0.09,0.18-0.19,0.36-0.28,0.54c0,0,0.02-0.01,0.02-0.01
		c-0.04,0.04-0.07,0.07-0.11,0.11c-0.29,0.28-0.49,0.61-0.68,0.96l0.01-0.01c-0.22,0.15-0.27,0.46-0.52,0.59
		c-0.12-0.13-0.24-0.25-0.31-0.55c0.44-0.39,0.93-0.82,1.42-1.25c-0.03-0.03-0.06-0.06-0.09-0.09c-0.44,0.48-0.89,0.97-1.33,1.45
		c-0.24-0.17-0.38-0.27-0.61-0.44c0.19-0.14,0.34-0.25,0.49-0.36C177.8,10.26,177.79,10.27,177.79,10.27z"/>
	<path class="st4" d="M172.06,11c0.75-0.03,1.46,0.16,2.12,0.5c0.32,0.16,0.5,0.45,0.28,0.86c-0.8,0-1.61,0-2.5,0
		c0.37-0.22,0.72-0.16,1.01-0.29c0.09-0.06,0.16-0.15,0.28-0.1c0.08,0.06,0.2,0.08,0.18-0.04c-0.01-0.08,0.05-0.32-0.2-0.25
		l0.01,0.01c-0.23-0.4-0.65-0.42-1.03-0.54c-0.09-0.04-0.18-0.07-0.27-0.11c0,0,0,0,0,0C171.99,11.03,172.03,11.02,172.06,11z"/>
	<path class="st3" d="M178.08,14.81c0.22,0.04,0.4,0.12,0.47,0.35c-0.08-0.04-0.16-0.07-0.28-0.12c-0.06,0.54,0.18,0.95,0.42,1.36
		c0.28,0.46,0.28,0.9-0.05,1.37c0.01-0.44-0.17-0.79-0.46-1.08c0.21-0.11,0.08-0.23,0.01-0.35c-0.1-0.17-0.26-0.3-0.3-0.5
		c0.23,0.02,0.18,0.4,0.5,0.36C178.26,15.73,178.09,15.28,178.08,14.81L178.08,14.81z"/>
	<path class="st4" d="M173.34,13.67c0.4,0,0.7-0.32,1.12-0.35c0.01,0.08,0.02,0.17,0.03,0.26l0.01-0.01
		c-0.29,0.27-0.56,0.56-0.97,0.64c-0.4,0.16-0.83,0.22-1.19,0.47c0,0-0.01,0.03-0.01,0.03l-0.03,0l0.01-0.01
		c-0.12,0.01-0.25,0.02-0.4,0.03c0.41-0.31,0.87-0.49,1.16-0.88l-0.01,0.01c0.15,0,0.27-0.02,0.29-0.2L173.34,13.67z"/>
	<path class="st4" d="M174.48,13.58c0.06-0.07,0.12-0.14,0.21-0.24c0.12,0.15,0.22,0.28,0.32,0.41c-0.22,0.45-0.71,0.64-0.91,1.07
		c0,0,0.01-0.01,0.01-0.01c-0.09,0.01-0.24-0.02-0.1,0.15c-0.27,0.22-0.43,0.55-0.76,0.7c-0.25-0.13,0.11-0.26-0.01-0.39
		c0,0-0.01,0.01-0.01,0.01c0.09,0.02,0.11-0.03,0.1-0.1l-0.01,0.01c0.11-0.03,0.13-0.1,0.1-0.2L173.43,15
		c0.11,0.03,0.1-0.04,0.1-0.11l-0.01,0.01c0.12-0.02,0.13-0.1,0.11-0.2l-0.01,0.01c0.1,0.03,0.1-0.04,0.1-0.11l-0.01,0.01
		c0.15-0.04,0.21-0.15,0.2-0.29l-0.01,0.01c0.28-0.19,0.41-0.49,0.58-0.76C174.49,13.57,174.48,13.58,174.48,13.58z"/>
	<path class="st4" d="M175.08,16.89c-0.14-0.89,0.22-1.65,0.6-2.49c0.24,0.47,0.25,0.86,0.04,1.26c0,0,0.01-0.01,0.01-0.01
		c-0.16-0.05-0.08,0.07-0.1,0.13C175.39,16.13,175.39,16.59,175.08,16.89z"/>
	<path class="st4" d="M178.74,13.48c0.02-0.14-0.17-0.12-0.19-0.28c0.3-0.12,0.62-0.21,0.96-0.11c0.41,0.33,0.89,0.5,1.37,0.69
		c0.07,0.03,0.14,0.07,0.21,0.1c-0.63,0.01-1.24-0.08-1.83-0.28c-0.17-0.06-0.33-0.19-0.54-0.14L178.74,13.48z"/>
	<path class="st4" d="M179.63,12.95c-0.41-0.12-0.79,0.12-1.21,0.1c-0.11-0.18,0-0.34,0.07-0.54c0.78,0,1.56,0,2.34,0
		c0.11,0,0.24,0.01,0.17,0.18C180.55,12.8,180.06,12.7,179.63,12.95z"/>
	<path class="st4" d="M176.92,15.84c-0.24,0.32-0.13,0.76-0.39,1.23c0-0.91-0.01-1.68,0-2.44c0-0.35,0.31-0.21,0.47-0.33
		c0.21,0.38-0.21,0.73,0.08,1.05C176.95,15.49,176.99,15.68,176.92,15.84z"/>
	<path class="st4" d="M175.43,10.45c0.04,0.08,0.07,0.16,0.12,0.26c-0.14,0.09-0.28,0.19-0.42,0.29c-0.65-0.52-1.12-1.2-1.79-1.68
		c0,0,0.01,0.01,0.01,0.01c0-0.06-0.01-0.13-0.01-0.19c0.24,0.09,0.49,0.18,0.66,0.39c0.06,0.07,0.12,0.12,0.22,0.08L174.2,9.6
		c-0.02,0.1,0.04,0.1,0.11,0.1l-0.01-0.01c0,0.07,0.04,0.11,0.11,0.1l-0.01-0.01c0.16,0.18,0.35,0.31,0.58,0.39l-0.01-0.01
		C175.08,10.32,175.21,10.47,175.43,10.45L175.43,10.45z"/>
	<path class="st4" d="M180.92,12.19c0.13,0.13,0.08,0.19-0.08,0.19c-0.72,0.01-1.45,0.01-2.17,0.01c-0.34,0-0.25-0.29-0.32-0.52
		c0.62-0.03,1.18,0.21,1.76,0.24C180.38,12.13,180.65,12.16,180.92,12.19z"/>
	<path class="st4" d="M177.89,15.84c0.04,0.2,0.2,0.33,0.3,0.5c0.07,0.12,0.2,0.24-0.01,0.35c0,0,0.01,0.01,0.01,0.01
		s-0.03,0.01-0.03,0.01c-0.41-0.32-0.78-0.69-0.99-1.18c-0.09-0.29-0.13-0.58,0.01-0.87c0.23,0.08,0.11,0.39,0.34,0.45
		c0,0-0.01-0.01-0.01-0.01c-0.01,0.09-0.03,0.18,0.1,0.2l-0.01-0.01c-0.04,0.12,0.01,0.22,0.1,0.3l-0.01-0.01
		c0.04,0.12,0.07,0.24,0.2,0.29L177.89,15.84z"/>
	<path class="st4" d="M174.86,11.4c-0.12,0.12-0.21,0.12-0.32-0.03c-0.1-0.13-0.13-0.34-0.35-0.35l0.01,0.01
		c-0.01-0.35-0.3-0.54-0.47-0.8c-0.04-0.05-0.08-0.09-0.12-0.14c0,0,0.01,0.02,0.01,0.02c-0.16-0.13-0.34-0.25-0.27-0.51
		c0.45,0.09,0.64,0.5,0.96,0.76c0.25,0.21,0.48,0.44,0.72,0.66C174.96,11.18,174.91,11.29,174.86,11.4z"/>
	<path class="st3" d="M180.09,10.46c0.53-0.39,1.07-0.64,1.82-0.14c-0.53-0.03-0.88,0.12-1.16,0.42l0,0
		c-0.03-0.07,0.08-0.28-0.14-0.16c-0.19,0.1-0.36,0.24-0.53,0.36C180.01,10.77,180.5,10.63,180.09,10.46z"/>
	<path class="st4" d="M171.89,12.7c0.01-0.26,0.21-0.19,0.35-0.19c0.73-0.01,1.45,0,2.17,0c0.15,0.14,0.16,0.31,0.15,0.54
		c-0.75-0.05-1.47-0.26-2.21-0.36c-0.12-0.02-0.24-0.09-0.35,0.02C171.97,12.7,171.93,12.7,171.89,12.7z"/>
	<path class="st4" d="M180.09,10.46c0.42,0.17-0.08,0.32-0.02,0.48c0,0,0.01-0.01,0.01-0.01c-0.22,0-0.39,0.09-0.48,0.29l0.01-0.01
		c-0.13-0.05-0.21,0.02-0.3,0.1l0.01-0.01c-0.05,0.02-0.13,0.01-0.1,0.11l0.01-0.01c-0.23-0.05-0.41,0.14-0.63,0.14
		c-0.03-0.03-0.07-0.06-0.1-0.09c0.05-0.19,0.29-0.29,0.26-0.53c0,0-0.01,0.01-0.01,0.01c0.23-0.17,0.55-0.05,0.76-0.26
		C179.7,10.6,179.89,10.53,180.09,10.46z"/>
	<path class="st4" d="M177.25,9.18c0.42-0.18,0.34-0.69,0.62-1.02c0.07,0.68-0.19,1.62-0.64,2.29c-0.1-0.37-0.25-0.69-0.1-1.05
		C177.18,9.33,177.21,9.25,177.25,9.18z"/>
	<path class="st4" d="M173.46,13.1c0.26-0.02,0.53-0.05,0.84,0.04c-0.28,0.28-0.69,0.29-0.96,0.53c0,0,0.01-0.01,0.01-0.01
		c-0.12,0.04-0.23,0.08-0.29,0.2l0.01-0.01c-0.27,0.17-0.54,0.33-0.87,0.53c0.05-0.16,0.08-0.25,0.11-0.35
		C172.58,13.59,173.04,13.38,173.46,13.1z"/>
	<path class="st3" d="M179.52,15.84c0.32-0.13,0.26-0.13,0.13-0.39c-0.18-0.34-0.45-0.64-0.53-1.03c0.5,0.7,1,1.41,1.5,2.11
		c-0.02,0.02-0.03,0.04-0.05,0.06C180.22,16.34,179.87,16.09,179.52,15.84z"/>
	<path class="st4" d="M175.24,14.52c0.11,0.02,0.28,0,0.18,0.2c-0.35,0.67-0.42,1.41-0.58,2.19c-0.09-0.2-0.16-0.35-0.23-0.5
		c0.15-0.29-0.13-0.66,0.15-0.93C174.83,15.11,174.99,14.8,175.24,14.52z"/>
	<path class="st4" d="M174.19,11.02c0.04,0.13,0.2,0.2,0.17,0.41c-0.62-0.25-1.23-0.46-1.89-0.53c-0.16-0.02-0.31-0.09-0.4,0.11
		c-0.04,0.01-0.07,0.03-0.11,0.04c-0.12-0.19-0.05-0.28,0.16-0.32c0.35-0.07,0.7-0.1,1.05-0.07c0.15-0.07,0.24,0.08,0.37,0.1
		c0.22,0.09,0.44,0.18,0.66,0.27L174.19,11.02z"/>
	<path class="st3" d="M172.31,14.04c-0.03,0.1-0.06,0.19-0.11,0.35c0.33-0.2,0.6-0.37,0.87-0.53c-0.29,0.4-0.75,0.58-1.16,0.88
		c0.16-0.01,0.28-0.02,0.4-0.03c-0.4,0.33-0.77,0.11-1.17-0.08C171.64,14.64,171.98,14.35,172.31,14.04z"/>
	<path class="st3" d="M179.78,9.21c-0.09,0.03-0.09,0.28-0.26,0.11c-0.03-0.03-0.07-0.06-0.11-0.07c-0.05-0.02-0.05,0,0,0.02
		c0.04,0.01,0.12,0,0.13-0.02c0.15-0.51,0.65-0.63,1.03-0.89c-0.17,0.39-0.43,0.71-0.76,0.98C179.79,9.29,179.78,9.24,179.78,9.21
		c0.02,0,0.05,0.01,0.08,0.02c0-0.02,0-0.04,0.01-0.05C179.83,9.19,179.8,9.2,179.78,9.21z"/>
	<path class="st3" d="M173.17,10.66c-0.35-0.04-0.7,0-1.05,0.07c-0.22,0.04-0.28,0.12-0.16,0.32c0,0,0,0,0,0
		c-0.48-0.03-0.69-0.32-0.76-0.81c0.41,0.55,0.94,0.38,1.45,0.32C172.82,10.54,173.03,10.46,173.17,10.66z"/>
	<path class="st3" d="M173.33,9.14c0,0.06,0.01,0.13,0.01,0.19c-0.17,0.09-0.31,0.15-0.43-0.11c-0.12-0.26-0.33-0.49-0.46-0.77
		c0.32,0.16,0.68,0.27,0.87,0.62c-0.04-0.01-0.1-0.03-0.1,0.04C173.22,9.12,173.3,9.13,173.33,9.14L173.33,9.14z"/>
	<path class="st3" d="M175.24,14.52c-0.24,0.28-0.41,0.59-0.48,0.96c-0.19-0.11,0.06-0.27-0.05-0.4c-0.16-0.08-0.24,0.16-0.4,0.12
		l-0.02-0.02c0.08-0.22,0.36-0.23,0.44-0.44c0.11,0.05,0.16,0.02,0.14-0.11c0,0,0,0,0,0c0.11,0.04,0.14,0,0.09-0.1c0,0,0,0,0,0
		C175.06,14.66,175.15,14.51,175.24,14.52L175.24,14.52z"/>
	<path class="st4" d="M175.24,14.52c-0.09-0.02-0.18,0.14-0.28,0c-0.21-0.14-0.32,0.25-0.53,0.09c0.16-0.29,0.43-0.48,0.66-0.7
		c0.2,0.03,0.31,0.17,0.44,0.26C175.52,14.37,175.29,14.37,175.24,14.52z"/>
	<path class="st3" d="M179.5,10.67c-0.21,0.21-0.54,0.1-0.76,0.26c0.19-0.34,0.39-0.68,0.68-0.96c0,0.27-0.29,0.4-0.32,0.66
		C179.23,10.75,179.37,10.62,179.5,10.67z"/>
	<path class="st3" d="M174.52,8.1c-0.25,0.05-0.28-0.24-0.47-0.3c0.02-0.24,0.05-0.49,0.31-0.74C174.33,7.47,174.45,7.78,174.52,8.1
		z"/>
	<path class="st3" d="M174.96,10.18c-0.23-0.08-0.42-0.21-0.58-0.39c0.1,0.01,0.2,0.02,0.29,0.03c0.1-0.33-0.14-0.58-0.11-0.88
		C174.87,9.3,174.74,9.79,174.96,10.18z"/>
	<path class="st3" d="M174.2,11.03c-0.22-0.09-0.44-0.18-0.66-0.27c0.12-0.01,0.24-0.02,0.36-0.03c0.08-0.21-0.32-0.26-0.16-0.49
		C173.9,10.49,174.19,10.68,174.2,11.03z"/>
	<path class="st3" d="M174.49,13.57c-0.17,0.27-0.3,0.58-0.58,0.76c-0.07-0.23-0.26-0.07-0.39-0.12
		C173.93,14.13,174.2,13.84,174.49,13.57z"/>
	<path class="st3" d="M172.22,11.15c0.38,0.12,0.8,0.14,1.03,0.54C172.91,11.51,172.57,11.33,172.22,11.15z"/>
	<path class="st3" d="M173.25,15.27c0.11,0.13-0.25,0.26,0.01,0.39c-0.12,0.1-0.25,0.21-0.41,0.35
		C172.87,15.64,173,15.42,173.25,15.27z"/>
	<path class="st3" d="M173.24,11.68c0.25-0.07,0.19,0.17,0.2,0.25c0.01,0.13-0.1,0.11-0.18,0.04
		C173.46,11.87,173.3,11.78,173.24,11.68z"/>
	<path class="st3" d="M180.1,11.43c-0.13,0.14-0.28,0.25-0.49,0.27l-0.01-0.02c0.12-0.16,0.3-0.22,0.47-0.28L180.1,11.43z"/>
	<path class="st3" d="M175.15,8.47c-0.23-0.04-0.41-0.18-0.59-0.31C174.82,8.15,175.01,8.26,175.15,8.47z"/>
	<path class="st3" d="M174.3,15.19c-0.07,0.15-0.21,0.2-0.44,0.31c0.17-0.2,0.26-0.31,0.42-0.33
		C174.28,15.17,174.3,15.19,174.3,15.19z"/>
	<path class="st3" d="M173.91,14.32c0.01,0.15-0.05,0.25-0.2,0.29C173.73,14.48,173.79,14.38,173.91,14.32z"/>
	<path class="st3" d="M174.28,8.47c0.16,0.04,0.2,0.15,0.2,0.3C174.33,8.72,174.31,8.59,174.28,8.47z"/>
	<path class="st3" d="M175.44,8.85c-0.12-0.02-0.16-0.11-0.2-0.2C175.4,8.62,175.43,8.72,175.44,8.85z"/>
	<path class="st3" d="M173.44,14.99c0.03,0.1,0,0.17-0.1,0.2C173.31,15.09,173.36,15.03,173.44,14.99z"/>
	<path class="st3" d="M175.62,15.78c0.01-0.06-0.06-0.18,0.1-0.13C175.73,15.73,175.7,15.78,175.62,15.78z"/>
	<path class="st3" d="M174.15,8.27c0.15-0.01,0.16,0.09,0.15,0.2C174.24,8.41,174.2,8.34,174.15,8.27z"/>
	<path class="st3" d="M175.25,8.66c-0.09-0.04-0.15-0.09-0.11-0.2C175.21,8.51,175.34,8.53,175.25,8.66z"/>
	<path class="st4" d="M173.34,9.15c-0.04-0.01-0.12-0.03-0.12-0.04c0-0.07,0.06-0.04,0.1-0.04C173.35,9.09,173.35,9.12,173.34,9.15z
		"/>
	<path class="st3" d="M174.21,9.6c-0.1,0.04-0.16-0.01-0.22-0.08C174.08,9.51,174.16,9.51,174.21,9.6z"/>
	<polygon class="st3" points="179.53,9.87 179.51,9.87 179.54,9.89 	"/>
	<path class="st3" d="M173.63,14.7c0.02,0.1,0.01,0.18-0.11,0.2C173.51,14.81,173.55,14.75,173.63,14.7z"/>
	<path class="st3" d="M180.36,11.21c-0.01,0.09-0.08,0.12-0.15,0.13l-0.03-0.03C180.2,11.22,180.27,11.19,180.36,11.21L180.36,11.21
		z"/>
	<path class="st3" d="M174.01,14.96c-0.14-0.17,0.01-0.14,0.1-0.15C174.17,14.92,174.1,14.94,174.01,14.96z"/>
	<path class="st3" d="M174.47,8.75c0.11,0.03,0.1,0.12,0.1,0.2C174.44,8.94,174.47,8.84,174.47,8.75z"/>
	<path class="st3" d="M180.67,10.86c-0.02,0.07-0.03,0.15-0.12,0.16l0,0c-0.03-0.09,0-0.16,0.1-0.19L180.67,10.86z"/>
	<path class="st3" d="M173.53,14.89c0,0.07,0,0.14-0.1,0.11C173.43,14.93,173.45,14.88,173.53,14.89z"/>
	<path class="st3" d="M181.76,14.73c0.01,0,0.02,0,0.03-0.01c0,0-0.01,0.01-0.01,0.01C181.78,14.74,181.76,14.73,181.76,14.73z"/>
	<path class="st4" d="M174.87,14.62c0.02,0.13-0.03,0.16-0.14,0.11C174.74,14.66,174.78,14.61,174.87,14.62z"/>
	<path class="st3" d="M180.45,11.12c0,0.07-0.03,0.1-0.1,0.09c0,0,0,0,0,0C180.33,11.13,180.37,11.1,180.45,11.12L180.45,11.12z"/>
	<path class="st3" d="M173.72,14.61c0,0.07,0,0.13-0.1,0.11C173.62,14.65,173.65,14.6,173.72,14.61z"/>
	<polygon class="st3" points="172.29,14.71 172.32,14.71 172.33,14.68 	"/>
	<path class="st3" d="M173.34,15.17c0,0.07-0.01,0.13-0.1,0.1C173.24,15.21,173.26,15.16,173.34,15.17z"/>
	<path class="st3" d="M178.16,16.7c0,0,0.03-0.01,0.03-0.01S178.16,16.7,178.16,16.7z"/>
	<path class="st3" d="M173.62,10.11c0,0-0.01-0.02-0.01-0.02C173.61,10.09,173.62,10.11,173.62,10.11z"/>
	<path class="st3" d="M174.4,9.79c-0.07,0-0.11-0.03-0.11-0.1C174.37,9.68,174.43,9.69,174.4,9.79z"/>
	<path class="st4" d="M174.96,14.53c0.04,0.1,0.01,0.14-0.09,0.1C174.85,14.54,174.88,14.51,174.96,14.53z"/>
	<path class="st3" d="M174.3,9.7c-0.06-0.01-0.13-0.01-0.11-0.1C174.26,9.6,174.31,9.61,174.3,9.7z"/>
	<path class="st3" d="M180.55,11.02c0.01,0.07-0.03,0.1-0.09,0.1c0,0,0,0,0,0C180.44,11.04,180.47,11.01,180.55,11.02L180.55,11.02z
		"/>
	<polygon class="st3" points="178.77,7.16 178.75,7.14 178.77,7.14 	"/>
	<path class="st3" d="M180.2,11.34c-0.03,0.03-0.07,0.06-0.1,0.09c0,0-0.03-0.03-0.03-0.03c0.03-0.03,0.06-0.06,0.1-0.09
		L180.2,11.34z"/>
	<path class="st3" d="M180.74,10.74c0.01,0.06-0.01,0.1-0.08,0.12c0,0-0.02-0.03-0.02-0.03C180.64,10.77,180.67,10.73,180.74,10.74
		L180.74,10.74z"/>
	<path class="st4" d="M177.99,13.58c-0.55,0.51-1.15,0.85-1.94,0.66c-1.07-0.26-1.68-1.36-1.32-2.41c0.05-0.14,0.18-0.27,0.13-0.44
		c0.4-0.43,0.87-0.74,1.48-0.78c1.39-0.09,2.36,1.25,1.84,2.54C178.12,13.3,178.05,13.44,177.99,13.58z M176.09,11.78
		c0.01-0.06,0.13-0.08,0.02-0.18c-0.34-0.29-0.64-0.2-0.95,0.03c0.04,0.09,0.17,0.04,0.17,0.15c0.05,0.24,0.14,0.45,0.44,0.43
		C176.06,12.2,176.05,11.97,176.09,11.78z M175.91,12.89c0.39,0.02,0.75,0.07,1.17-0.04c-0.37-0.06-0.66-0.12-0.95-0.14
		C176.07,12.7,175.99,12.81,175.91,12.89z M176.98,11.8c0.03,0.16-0.08,0.4,0.21,0.41c0.22,0,0.34-0.13,0.29-0.38
		C177.33,11.74,177.16,11.75,176.98,11.8z M175.82,13.4c0.37,0.01,0.73-0.13,1.09-0.17C176.54,13.24,176.15,13.05,175.82,13.4z"/>
	<path class="st4" d="M177.11,10.52c-0.43,0.06-0.59-0.05-0.58-0.44c0.03-0.68,0.01-1.36,0.01-2.05c0.04,0,0.08-0.01,0.12-0.01
		C176.8,8.84,176.95,9.67,177.11,10.52z"/>
	<path class="st4" d="M180.74,10.74c-0.07-0.01-0.09,0.03-0.09,0.09c-0.1,0.03-0.13,0.09-0.1,0.19c-0.08-0.01-0.11,0.02-0.09,0.1
		c-0.09-0.02-0.12,0.01-0.09,0.1c-0.09-0.03-0.16,0.01-0.19,0.1c-0.03,0.03-0.06,0.06-0.1,0.09c-0.18,0.06-0.35,0.13-0.47,0.28
		c-0.29,0.19-0.6,0.14-0.93,0.06c0.1-0.26,0.42-0.16,0.55-0.35c0,0-0.01,0.01-0.01,0.01c0.05-0.01,0.14,0,0.1-0.11
		c0,0-0.01,0.01-0.01,0.01c0.13,0.05,0.22-0.01,0.3-0.1l-0.01,0.01c0.19-0.05,0.34-0.17,0.48-0.29c0,0-0.01,0.01-0.01,0.01
		c0.18-0.12,0.34-0.26,0.53-0.36C180.82,10.46,180.71,10.67,180.74,10.74z"/>
	<path class="st4" d="M177.8,10.26c-0.08,0.04-0.16,0.08-0.37,0.17c0.4-0.83,0.56-1.61,0.7-2.4c0.25,0.8,0.16,1.55-0.34,2.24
		C177.79,10.27,177.8,10.26,177.8,10.26z"/>
	<path class="st4" d="M178.73,13.47c0.67,0.38,1.42,0.47,2.17,0.6c-0.61,0.32-1.87,0.14-2.2-0.33c-0.04-0.05-0.36-0.25,0.04-0.27
		C178.74,13.48,178.73,13.47,178.73,13.47z"/>
	<path class="st4" d="M178.6,11.54c-0.04,0.01-0.08,0.02-0.12,0.02c0.01-0.04,0.01-0.08,0.02-0.11
		C178.53,11.48,178.56,11.51,178.6,11.54z"/>
	<path class="st4" d="M176.39,14.44c0,0.86,0,1.68,0,2.49c-0.03,0-0.05,0.01-0.08,0.01c-0.15-0.82-0.3-1.64-0.44-2.44
		C176.05,14.31,176.21,14.39,176.39,14.44z"/>
	<path class="st4" d="M178.09,14.8c0,0.48,0.18,0.93,0.3,1.4c-0.32,0.04-0.27-0.35-0.5-0.36l0.01,0.01c0.01-0.15-0.04-0.26-0.2-0.29
		c0,0,0.01,0.01,0.01,0.01c0.04-0.12,0-0.22-0.1-0.3l0.01,0.01c-0.01-0.08-0.01-0.16-0.1-0.2c0,0,0.01,0.01,0.01,0.01
		c-0.05-0.18-0.1-0.35-0.15-0.53c0.03-0.04,0.06-0.07,0.09-0.11C177.67,14.57,177.84,14.75,178.09,14.8z"/>
	<path class="st4" d="M177.37,14.56c-0.06-0.12-0.02-0.14,0.09-0.11C177.43,14.49,177.4,14.53,177.37,14.56z"/>
	<path class="st3" d="M175.33,9.61c-0.16-0.28-0.41-0.52-0.47-0.86l-0.01,0.01C175.1,8.99,175.29,9.26,175.33,9.61
		C175.33,9.61,175.33,9.61,175.33,9.61z"/>
	<path class="st3" d="M175.44,10.46c-0.23,0.01-0.36-0.14-0.49-0.29C175.17,10.17,175.29,10.34,175.44,10.46z"/>
	<path class="st3" d="M174.87,8.75c-0.12,0.02-0.14-0.08-0.18-0.15C174.82,8.57,174.84,8.66,174.87,8.75
		C174.86,8.76,174.87,8.75,174.87,8.75z"/>
	<path class="st3" d="M174.62,8.46c-0.01-0.01-0.02-0.01-0.03-0.02c0.01-0.01,0.02-0.03,0.03-0.04c0.01,0.01,0.02,0.02,0.03,0.03
		C174.64,8.45,174.63,8.45,174.62,8.46z"/>
	<path class="st3" d="M173.05,13.86c0.06-0.12,0.18-0.16,0.29-0.2C173.33,13.85,173.2,13.87,173.05,13.86z"/>
	<path class="st3" d="M177.7,15.56c0.16,0.04,0.21,0.15,0.2,0.29C177.77,15.79,177.73,15.68,177.7,15.56z"/>
	<path class="st3" d="M177.61,15.27c0.1,0.08,0.14,0.17,0.1,0.3C177.61,15.49,177.57,15.39,177.61,15.27z"/>
	<path class="st3" d="M177.51,15.08c0.09,0.04,0.1,0.12,0.1,0.2C177.48,15.27,177.51,15.17,177.51,15.08z"/>
	<path class="st3" d="M180.08,10.93c-0.14,0.13-0.3,0.24-0.48,0.29C179.7,11.02,179.86,10.92,180.08,10.93z"/>
	<path class="st3" d="M179.61,11.21c-0.08,0.09-0.17,0.15-0.3,0.1C179.39,11.23,179.48,11.16,179.61,11.21z"/>
	<path class="st3" d="M179.32,11.3c0.03,0.1-0.05,0.09-0.1,0.11C179.19,11.31,179.26,11.32,179.32,11.3z"/>
	<path class="st4" d="M179.78,9.21c0.03-0.01,0.05-0.02,0.08-0.03c0,0.02,0,0.04-0.01,0.05C179.82,9.22,179.8,9.21,179.78,9.21
		C179.77,9.2,179.78,9.21,179.78,9.21z"/>
	<path class="st3" d="M176.09,11.78c-0.04,0.19-0.03,0.42-0.31,0.43c-0.3,0.02-0.39-0.19-0.44-0.43l-0.01,0
		C175.59,11.78,175.84,11.78,176.09,11.78L176.09,11.78z"/>
	<path class="st3" d="M175.91,12.89c0.08-0.07,0.16-0.19,0.22-0.18c0.3,0.03,0.59,0.09,0.95,0.14
		C176.66,12.96,176.31,12.91,175.91,12.89z"/>
	<path class="st3" d="M175.34,11.78c0-0.11-0.13-0.05-0.17-0.15c0.31-0.23,0.61-0.32,0.95-0.03c0.11,0.09-0.02,0.12-0.02,0.18
		c0,0,0.01,0,0.01,0C175.84,11.51,175.59,11.46,175.34,11.78L175.34,11.78z"/>
	<path class="st3" d="M176.98,11.8c0.18-0.04,0.35-0.06,0.51,0.03c0.04,0.25-0.08,0.38-0.29,0.38
		C176.9,12.2,177.01,11.96,176.98,11.8z"/>
	<path class="st3" d="M175.82,13.4c0.33-0.35,0.72-0.16,1.09-0.17C176.55,13.28,176.19,13.41,175.82,13.4z"/>
	<path class="st4" d="M175.33,11.78c0.26-0.32,0.51-0.27,0.77,0C175.84,11.78,175.59,11.78,175.33,11.78z"/>
	<path class="st6" d="M24.9,0.54l-6.7,21.39h-6.75L4.47,0.54h6.98l3.4,11.66c0.23,0.69,0.44,1.37,0.62,2.04l3.98-13.7H24.9z
		 M32.98,5.99v15.94h-6.31V5.99H32.98z M46.21,5.99v4.06h-3.2v5.88c0,0.8,0.15,1.28,0.46,1.43c0.3,0.15,0.62,0.22,0.94,0.22
		c0.51,0,1.11-0.09,1.8-0.26v4.45c-1.24,0.24-2.47,0.36-3.66,0.36c-1.94,0-3.37-0.41-4.28-1.24c-0.91-0.83-1.36-2.14-1.36-3.95
		l0.02-1.86v-5.03h-2.41V5.99h2.41l0.09-5.18l5.99-0.1v5.28H46.21z M64.77,21.92h-6.01c-0.15-0.68-0.22-1.42-0.22-2.22
		c-1.14,1.7-2.86,2.56-5.17,2.56c-1.89,0-3.31-0.48-4.26-1.44c-0.94-0.96-1.42-2.06-1.42-3.31c0-1.69,0.78-3.04,2.32-4.08
		c1.54-1.04,4.28-1.66,8.21-1.87v-0.36c0-0.7-0.16-1.17-0.49-1.4c-0.32-0.23-0.79-0.34-1.41-0.34c-1.45,0-2.27,0.58-2.43,1.74
		l-5.75-0.53c0.82-3.33,3.61-5,8.39-5c1.29,0,2.49,0.13,3.57,0.39c1.08,0.26,1.95,0.65,2.58,1.2c0.63,0.54,1.06,1.12,1.27,1.72
		c0.22,0.6,0.32,1.77,0.32,3.49v6.36C64.28,20.03,64.44,21.07,64.77,21.92z M58.23,14.46c-2.69,0.28-4.03,1.13-4.03,2.56
		c0,0.96,0.53,1.44,1.59,1.44c0.68,0,1.25-0.2,1.73-0.6c0.47-0.4,0.71-1.27,0.71-2.63V14.46z M26.63,0.92h6.33v3.95h-6.33V0.92z
		 M73.76,0.54v21.39h-6.21V0.54H73.76z"/>
	<path d="M152.77,12.07c-0.01-1.08-0.23-1.8-0.65-2.17c-0.43-0.37-0.96-0.56-1.59-0.56c-1.49,0-2.24,0.91-2.24,2.73H152.77z
		 M153.18,16.21l5.88,0.39c-0.35,1.57-1.24,2.9-2.66,4c-1.43,1.11-3.36,1.66-5.79,1.66c-2.71,0-4.87-0.78-6.48-2.33
		c-1.61-1.55-2.42-3.47-2.42-5.77c0-2.38,0.8-4.39,2.39-6.03c1.59-1.64,3.71-2.46,6.36-2.46c2.57,0,4.65,0.78,6.24,2.32
		c1.59,1.55,2.38,3.65,2.38,6.31c0,0.22-0.01,0.52-0.02,0.91H148.3c0.02,1.01,0.2,1.75,0.54,2.24c0.33,0.48,0.98,0.73,1.93,0.73
		C152.14,18.16,152.94,17.51,153.18,16.21z M135.33,15.5l5.37,0.45c-0.25,1.86-1.04,3.37-2.36,4.54c-1.32,1.17-3.08,1.76-5.27,1.76
		c-2.46,0-4.45-0.77-5.98-2.3c-1.53-1.53-2.3-3.49-2.3-5.88c0-2.44,0.77-4.46,2.29-6.04c1.52-1.58,3.5-2.37,5.93-2.37
		c2.16,0,3.92,0.6,5.28,1.79c1.36,1.2,2.14,2.71,2.34,4.54l-5.51,0.45c-0.23-1.68-0.88-2.52-1.93-2.52c-0.67,0-1.17,0.3-1.48,0.91
		c-0.31,0.61-0.46,1.67-0.46,3.19c0,1.31,0.16,2.27,0.46,2.9c0.31,0.63,0.85,0.94,1.62,0.94C134.44,17.86,135.11,17.08,135.33,15.5z
		 M119.33,21.92h-6.04V5.99h5.24v3.29c0.6-2.4,2-3.59,4.19-3.59c0.22,0,0.52,0.02,0.92,0.06v5.56c-0.44-0.11-0.84-0.16-1.19-0.16
		c-2.09,0-3.13,1.16-3.13,3.47V21.92z M102.01,18.46c0.98,0,1.58-0.51,1.8-1.51c0.22-1.01,0.32-2.06,0.32-3.16
		c0-1.49-0.15-2.57-0.46-3.22c-0.31-0.66-0.85-0.99-1.65-0.99c-0.73,0-1.26,0.34-1.6,1.02c-0.33,0.68-0.5,1.8-0.5,3.35
		c0,1.83,0.17,3.04,0.52,3.63C100.8,18.16,101.32,18.46,102.01,18.46z M101.92,22.26c-2.66,0-4.78-0.82-6.35-2.47
		C94,18.14,93.21,16.21,93.21,14c0-2.39,0.82-4.37,2.46-5.96c1.64-1.59,3.77-2.38,6.39-2.38c2.64,0,4.77,0.78,6.38,2.35
		c1.61,1.57,2.41,3.54,2.41,5.89c0,2.38-0.81,4.37-2.44,5.96C106.78,21.46,104.62,22.26,101.92,22.26z M90.78,13.92h-7.03v8.01H77.3
		V0.54H92.9v5.09h-9.15v3.48h7.03V13.92z"/>
	<path class="st7" d="M162.36,34.77h-1.93V31.7c0-0.25-0.01-0.5-0.03-0.75c-0.02-0.25-0.06-0.43-0.11-0.55
		c-0.07-0.14-0.16-0.24-0.29-0.3c-0.13-0.06-0.29-0.09-0.5-0.09c-0.16,0-0.32,0.03-0.48,0.09c-0.16,0.06-0.34,0.15-0.52,0.28v4.38
		h-1.93v-6.19h1.93v0.68c0.32-0.27,0.62-0.48,0.92-0.63c0.3-0.15,0.63-0.23,1-0.23c0.63,0,1.12,0.2,1.45,0.6
		c0.33,0.4,0.5,0.97,0.5,1.73V34.77z M154.27,25.53l-1.66,2.17h-1.31l1.14-2.17H154.27z M153.57,31.69c0-0.36-0.03-0.67-0.09-0.91
		c-0.06-0.24-0.14-0.44-0.25-0.59c-0.11-0.15-0.24-0.26-0.39-0.32c-0.14-0.06-0.31-0.09-0.49-0.09c-0.17,0-0.33,0.03-0.47,0.08
		c-0.14,0.05-0.27,0.15-0.39,0.3c-0.11,0.14-0.2,0.34-0.27,0.59c-0.07,0.25-0.1,0.56-0.1,0.94c0,0.38,0.03,0.68,0.09,0.91
		c0.06,0.23,0.14,0.42,0.24,0.56c0.1,0.14,0.23,0.25,0.39,0.31c0.15,0.07,0.33,0.1,0.52,0.1c0.15,0,0.31-0.03,0.47-0.1
		c0.16-0.07,0.29-0.16,0.38-0.3c0.11-0.16,0.2-0.35,0.26-0.57C153.54,32.39,153.57,32.08,153.57,31.69z M155.54,31.68
		c0,1.02-0.28,1.82-0.84,2.4c-0.56,0.59-1.35,0.88-2.36,0.88c-1.01,0-1.8-0.29-2.36-0.88c-0.56-0.59-0.84-1.39-0.84-2.4
		c0-1.03,0.28-1.83,0.84-2.41c0.56-0.58,1.35-0.87,2.36-0.87c1.02,0,1.8,0.29,2.36,0.88C155.26,29.85,155.54,30.66,155.54,31.68z
		 M148.17,27.7h-2.04v-1.5h2.04V27.7z M148.12,34.77h-1.93v-6.19h1.93V34.77z M143.27,34.94c-0.51,0-0.98-0.06-1.4-0.19
		c-0.42-0.13-0.79-0.33-1.1-0.59c-0.31-0.27-0.55-0.61-0.72-1.01c-0.17-0.41-0.26-0.88-0.26-1.44c0-0.59,0.09-1.09,0.28-1.51
		c0.19-0.42,0.44-0.76,0.76-1.03c0.31-0.26,0.67-0.45,1.09-0.57c0.42-0.12,0.85-0.18,1.3-0.18c0.34,0,0.68,0.04,1.03,0.12
		c0.34,0.08,0.68,0.2,1.03,0.38v1.65h-0.25c-0.08-0.07-0.17-0.15-0.28-0.24c-0.11-0.09-0.23-0.17-0.36-0.24
		c-0.14-0.08-0.3-0.14-0.47-0.2c-0.18-0.05-0.37-0.08-0.59-0.08c-0.49,0-0.87,0.17-1.14,0.52c-0.27,0.34-0.4,0.81-0.4,1.39
		c0,0.62,0.14,1.08,0.43,1.39c0.29,0.3,0.67,0.46,1.15,0.46c0.24,0,0.46-0.03,0.64-0.08c0.18-0.05,0.34-0.12,0.47-0.2
		c0.13-0.08,0.24-0.16,0.33-0.24c0.09-0.08,0.17-0.16,0.24-0.22h0.25v1.65c-0.11,0.05-0.24,0.1-0.38,0.17
		c-0.15,0.06-0.29,0.11-0.44,0.15c-0.19,0.05-0.36,0.09-0.53,0.12C143.75,34.92,143.54,34.94,143.27,34.94z M137.31,34.94
		c-0.51,0-0.98-0.06-1.4-0.19c-0.42-0.13-0.79-0.33-1.1-0.59c-0.31-0.27-0.55-0.61-0.72-1.01c-0.17-0.41-0.26-0.88-0.26-1.44
		c0-0.59,0.09-1.09,0.28-1.51c0.19-0.42,0.44-0.76,0.76-1.03c0.31-0.26,0.67-0.45,1.09-0.57c0.42-0.12,0.85-0.18,1.3-0.18
		c0.34,0,0.68,0.04,1.03,0.12c0.34,0.08,0.68,0.2,1.03,0.38v1.65h-0.25c-0.08-0.07-0.17-0.15-0.28-0.24
		c-0.11-0.09-0.23-0.17-0.36-0.24c-0.14-0.08-0.3-0.14-0.47-0.2c-0.18-0.05-0.37-0.08-0.59-0.08c-0.49,0-0.87,0.17-1.14,0.52
		c-0.27,0.34-0.4,0.81-0.4,1.39c0,0.62,0.14,1.08,0.43,1.39c0.29,0.3,0.67,0.46,1.15,0.46c0.24,0,0.46-0.03,0.64-0.08
		c0.18-0.05,0.34-0.12,0.47-0.2c0.13-0.08,0.24-0.16,0.33-0.24c0.09-0.08,0.17-0.16,0.24-0.22h0.25v1.65
		c-0.11,0.05-0.24,0.1-0.38,0.17c-0.15,0.06-0.29,0.11-0.44,0.15c-0.19,0.05-0.36,0.09-0.53,0.12
		C137.8,34.92,137.58,34.94,137.31,34.94z M132.81,34.77h-1.93v-0.68c-0.33,0.28-0.64,0.49-0.92,0.64c-0.28,0.14-0.61,0.22-1,0.22
		c-0.62,0-1.09-0.19-1.44-0.58c-0.34-0.39-0.52-0.97-0.52-1.75v-4.03h1.93v3.07c0,0.32,0.01,0.58,0.02,0.78
		c0.02,0.2,0.06,0.37,0.12,0.51c0.06,0.13,0.15,0.23,0.27,0.29c0.12,0.07,0.3,0.1,0.52,0.1c0.14,0,0.3-0.03,0.49-0.1
		c0.19-0.07,0.36-0.16,0.52-0.27v-4.38h1.93V34.77z M123.65,33.06v-3.05c-0.1-0.05-0.22-0.09-0.38-0.12
		c-0.16-0.03-0.29-0.05-0.4-0.05c-0.47,0-0.82,0.16-1.05,0.49c-0.24,0.33-0.35,0.78-0.35,1.36c0,0.61,0.09,1.06,0.28,1.33
		c0.19,0.27,0.49,0.41,0.91,0.41c0.17,0,0.34-0.03,0.52-0.1C123.35,33.27,123.51,33.18,123.65,33.06z M125.58,34.77h-1.93v-0.65
		c-0.13,0.1-0.27,0.21-0.43,0.33c-0.16,0.12-0.3,0.2-0.42,0.27c-0.15,0.07-0.31,0.13-0.46,0.16c-0.15,0.04-0.33,0.05-0.54,0.05
		c-0.71,0-1.27-0.29-1.68-0.87c-0.41-0.59-0.62-1.36-0.62-2.34c0-0.54,0.07-1.01,0.21-1.4c0.14-0.4,0.33-0.74,0.58-1.04
		c0.23-0.27,0.5-0.48,0.82-0.64c0.32-0.16,0.66-0.23,1.02-0.23c0.32,0,0.59,0.03,0.8,0.1c0.21,0.07,0.45,0.17,0.73,0.32v-2.64h1.93
		V34.77z M116.96,31.69c0-0.36-0.03-0.67-0.09-0.91c-0.06-0.24-0.14-0.44-0.25-0.59c-0.11-0.15-0.24-0.26-0.39-0.32
		c-0.14-0.06-0.31-0.09-0.49-0.09c-0.17,0-0.33,0.03-0.47,0.08c-0.14,0.05-0.27,0.15-0.39,0.3c-0.11,0.14-0.2,0.34-0.27,0.59
		c-0.07,0.25-0.1,0.56-0.1,0.94c0,0.38,0.03,0.68,0.09,0.91c0.06,0.23,0.14,0.42,0.24,0.56c0.1,0.14,0.23,0.25,0.39,0.31
		c0.15,0.07,0.33,0.1,0.52,0.1c0.15,0,0.31-0.03,0.47-0.1c0.16-0.07,0.29-0.16,0.38-0.3c0.11-0.16,0.2-0.35,0.26-0.57
		C116.93,32.39,116.96,32.08,116.96,31.69z M118.93,31.68c0,1.02-0.28,1.82-0.84,2.4c-0.56,0.59-1.35,0.88-2.36,0.88
		c-1.01,0-1.8-0.29-2.36-0.88c-0.56-0.59-0.84-1.39-0.84-2.4c0-1.03,0.28-1.83,0.84-2.41c0.56-0.58,1.35-0.87,2.36-0.87
		c1.02,0,1.8,0.29,2.36,0.88C118.65,29.85,118.93,30.66,118.93,31.68z M112.25,30.41h-0.16c-0.07-0.03-0.18-0.05-0.32-0.06
		c-0.14-0.01-0.3-0.02-0.46-0.02c-0.2,0-0.42,0.03-0.64,0.09c-0.22,0.06-0.44,0.13-0.65,0.21v4.14h-1.93v-6.19h1.93v0.89
		c0.09-0.08,0.21-0.18,0.37-0.3c0.16-0.12,0.3-0.22,0.43-0.3c0.14-0.08,0.3-0.16,0.49-0.22c0.19-0.06,0.36-0.09,0.53-0.09
		c0.06,0,0.13,0,0.21,0.01c0.08,0,0.15,0.01,0.21,0.02V30.41z M104.98,29.2c0-0.23-0.05-0.43-0.17-0.6
		c-0.11-0.17-0.24-0.28-0.4-0.34c-0.19-0.08-0.38-0.13-0.56-0.15c-0.18-0.01-0.42-0.02-0.72-0.02h-0.29v2.45h0.14
		c0.19,0,0.38,0,0.55-0.01c0.17,0,0.32-0.02,0.45-0.04c0.11-0.02,0.23-0.05,0.35-0.11c0.12-0.05,0.22-0.11,0.28-0.18
		c0.14-0.14,0.23-0.28,0.28-0.42C104.96,29.65,104.98,29.45,104.98,29.2z M107.1,29.15c0,0.38-0.06,0.75-0.18,1.09
		c-0.12,0.34-0.3,0.63-0.52,0.87c-0.14,0.14-0.29,0.27-0.46,0.4c-0.17,0.12-0.35,0.22-0.55,0.31c-0.2,0.08-0.42,0.15-0.66,0.2
		c-0.24,0.05-0.5,0.07-0.8,0.07h-1.08v2.69h-2.07v-8.21h3.19c0.47,0,0.88,0.04,1.23,0.13c0.34,0.09,0.65,0.22,0.94,0.41
		c0.31,0.21,0.55,0.48,0.72,0.82C107.02,28.27,107.1,28.68,107.1,29.15z M95.89,34.77h-1.93v-0.68c-0.33,0.28-0.64,0.49-0.92,0.64
		c-0.28,0.14-0.61,0.22-1,0.22c-0.62,0-1.09-0.19-1.44-0.58c-0.34-0.39-0.52-0.97-0.52-1.75v-4.03h1.93v3.07
		c0,0.32,0.01,0.58,0.02,0.78c0.02,0.2,0.06,0.37,0.12,0.51c0.06,0.13,0.15,0.23,0.27,0.29c0.12,0.07,0.3,0.1,0.52,0.1
		c0.14,0,0.3-0.03,0.49-0.1c0.19-0.07,0.36-0.16,0.52-0.27v-4.38h1.93V34.77z M86.22,34.94c-0.46,0-0.89-0.05-1.29-0.15
		c-0.41-0.1-0.74-0.21-1.01-0.35v-1.63h0.16c0.09,0.07,0.2,0.15,0.31,0.23c0.12,0.08,0.28,0.17,0.49,0.26
		c0.18,0.08,0.38,0.16,0.61,0.22c0.23,0.06,0.47,0.09,0.74,0.09c0.27,0,0.51-0.04,0.72-0.13c0.21-0.08,0.31-0.22,0.31-0.4
		c0-0.14-0.05-0.25-0.14-0.33c-0.1-0.07-0.28-0.14-0.56-0.21c-0.15-0.04-0.33-0.08-0.56-0.12c-0.23-0.04-0.42-0.09-0.6-0.15
		c-0.49-0.15-0.85-0.37-1.1-0.67c-0.24-0.3-0.37-0.68-0.37-1.16c0-0.28,0.06-0.54,0.19-0.78c0.13-0.24,0.31-0.46,0.56-0.65
		c0.25-0.19,0.55-0.34,0.91-0.45c0.36-0.11,0.77-0.17,1.23-0.17c0.43,0,0.83,0.04,1.2,0.13c0.37,0.09,0.67,0.19,0.92,0.31v1.57H88.8
		c-0.07-0.05-0.17-0.12-0.31-0.21c-0.14-0.09-0.28-0.16-0.42-0.22c-0.16-0.08-0.34-0.14-0.55-0.18c-0.2-0.05-0.4-0.07-0.62-0.07
		c-0.28,0-0.52,0.05-0.71,0.14c-0.19,0.1-0.29,0.22-0.29,0.38c0,0.14,0.05,0.25,0.14,0.33c0.1,0.08,0.3,0.16,0.62,0.24
		c0.17,0.04,0.36,0.08,0.57,0.12c0.21,0.04,0.42,0.09,0.62,0.16c0.45,0.14,0.78,0.35,1.01,0.63c0.23,0.28,0.34,0.65,0.34,1.1
		c0,0.29-0.07,0.57-0.2,0.83c-0.14,0.26-0.33,0.49-0.58,0.66c-0.27,0.2-0.58,0.35-0.94,0.45C87.15,34.88,86.72,34.94,86.22,34.94z
		 M78.03,31.69c0-0.36-0.03-0.67-0.09-0.91c-0.06-0.24-0.14-0.44-0.25-0.59c-0.11-0.15-0.24-0.26-0.39-0.32
		c-0.14-0.06-0.31-0.09-0.49-0.09c-0.17,0-0.33,0.03-0.47,0.08c-0.14,0.05-0.27,0.15-0.39,0.3c-0.11,0.14-0.2,0.34-0.27,0.59
		c-0.07,0.25-0.1,0.56-0.1,0.94c0,0.38,0.03,0.68,0.09,0.91c0.06,0.23,0.14,0.42,0.24,0.56c0.1,0.14,0.23,0.25,0.39,0.31
		c0.15,0.07,0.33,0.1,0.52,0.1c0.15,0,0.31-0.03,0.47-0.1c0.16-0.07,0.29-0.16,0.38-0.3c0.11-0.16,0.2-0.35,0.26-0.57
		C78,32.39,78.03,32.08,78.03,31.69z M80,31.68c0,1.02-0.28,1.82-0.84,2.4c-0.56,0.59-1.35,0.88-2.36,0.88
		c-1.01,0-1.8-0.29-2.36-0.88c-0.56-0.59-0.84-1.39-0.84-2.4c0-1.03,0.28-1.83,0.84-2.41c0.56-0.58,1.35-0.87,2.36-0.87
		c1.02,0,1.8,0.29,2.36,0.88C79.72,29.85,80,30.66,80,31.68z M70.65,33.06v-3.05c-0.1-0.05-0.22-0.09-0.38-0.12
		c-0.16-0.03-0.29-0.05-0.4-0.05c-0.47,0-0.82,0.16-1.05,0.49c-0.24,0.33-0.35,0.78-0.35,1.36c0,0.61,0.09,1.06,0.28,1.33
		c0.19,0.27,0.49,0.41,0.91,0.41c0.17,0,0.34-0.03,0.52-0.1C70.35,33.27,70.51,33.18,70.65,33.06z M72.58,34.77h-1.93v-0.65
		c-0.13,0.1-0.27,0.21-0.43,0.33c-0.16,0.12-0.3,0.2-0.42,0.27c-0.15,0.07-0.31,0.13-0.46,0.16c-0.15,0.04-0.33,0.05-0.54,0.05
		c-0.71,0-1.27-0.29-1.68-0.87c-0.41-0.59-0.62-1.36-0.62-2.34c0-0.54,0.07-1.01,0.21-1.4c0.14-0.4,0.33-0.74,0.58-1.04
		c0.23-0.27,0.5-0.48,0.82-0.64c0.32-0.16,0.66-0.23,1.02-0.23c0.32,0,0.59,0.03,0.8,0.1c0.21,0.07,0.45,0.17,0.73,0.32v-2.64h1.93
		V34.77z M65.53,34.77H63.6V31.7c0-0.25-0.01-0.5-0.03-0.75c-0.02-0.25-0.06-0.43-0.11-0.55c-0.07-0.14-0.16-0.24-0.29-0.3
		c-0.13-0.06-0.29-0.09-0.5-0.09c-0.16,0-0.32,0.03-0.48,0.09c-0.16,0.06-0.34,0.15-0.52,0.28v4.38h-1.93v-6.19h1.93v0.68
		c0.32-0.27,0.62-0.48,0.92-0.63c0.3-0.15,0.63-0.23,1-0.23c0.63,0,1.12,0.2,1.45,0.6c0.34,0.4,0.5,0.97,0.5,1.73V34.77z
		 M56.85,30.88c-0.01-0.41-0.11-0.73-0.29-0.94c-0.18-0.22-0.46-0.32-0.83-0.32c-0.38,0-0.68,0.11-0.89,0.34
		c-0.21,0.23-0.33,0.53-0.35,0.92H56.85z M56.2,34.94c-1.17,0-2.07-0.28-2.69-0.84c-0.62-0.56-0.94-1.35-0.94-2.39
		c0-1.01,0.29-1.82,0.87-2.42c0.58-0.6,1.4-0.9,2.44-0.9c0.95,0,1.66,0.26,2.14,0.77c0.48,0.51,0.72,1.24,0.72,2.2v0.69H54.5
		c0.02,0.29,0.08,0.53,0.18,0.72c0.1,0.19,0.24,0.35,0.41,0.46c0.17,0.11,0.36,0.2,0.58,0.24c0.22,0.05,0.46,0.08,0.72,0.08
		c0.23,0,0.45-0.02,0.66-0.08c0.22-0.05,0.42-0.12,0.6-0.2c0.16-0.07,0.3-0.15,0.44-0.23c0.14-0.08,0.24-0.15,0.33-0.22h0.21v1.6
		c-0.16,0.06-0.3,0.12-0.43,0.17c-0.13,0.05-0.31,0.11-0.54,0.16c-0.21,0.05-0.43,0.1-0.65,0.13C56.79,34.92,56.52,34.94,56.2,34.94
		z M51.6,27.7h-2.04v-1.5h2.04V27.7z M51.54,34.77h-1.93v-6.19h1.93V34.77z M46.7,34.94c-0.51,0-0.98-0.06-1.4-0.19
		c-0.42-0.13-0.79-0.33-1.1-0.59c-0.31-0.27-0.55-0.61-0.72-1.01c-0.17-0.41-0.26-0.88-0.26-1.44c0-0.59,0.09-1.09,0.28-1.51
		c0.19-0.42,0.44-0.76,0.76-1.03c0.31-0.26,0.67-0.45,1.09-0.57c0.42-0.12,0.85-0.18,1.3-0.18c0.34,0,0.68,0.04,1.03,0.12
		c0.34,0.08,0.68,0.2,1.03,0.38v1.65h-0.25c-0.08-0.07-0.17-0.15-0.28-0.24c-0.11-0.09-0.23-0.17-0.36-0.24
		c-0.14-0.08-0.3-0.14-0.47-0.2c-0.18-0.05-0.37-0.08-0.59-0.08c-0.49,0-0.87,0.17-1.14,0.52c-0.27,0.34-0.4,0.81-0.4,1.39
		c0,0.62,0.14,1.08,0.43,1.39c0.29,0.3,0.67,0.46,1.15,0.46c0.24,0,0.46-0.03,0.64-0.08c0.18-0.05,0.34-0.12,0.47-0.2
		c0.13-0.08,0.24-0.16,0.33-0.24c0.09-0.08,0.17-0.16,0.24-0.22h0.25v1.65c-0.11,0.05-0.24,0.1-0.38,0.17
		c-0.15,0.06-0.29,0.11-0.44,0.15c-0.19,0.05-0.36,0.09-0.53,0.12C47.18,34.92,46.96,34.94,46.7,34.94z M40.78,30.88
		c-0.01-0.41-0.11-0.73-0.29-0.94c-0.18-0.22-0.46-0.32-0.83-0.32c-0.38,0-0.68,0.11-0.89,0.34c-0.21,0.23-0.33,0.53-0.35,0.92
		H40.78z M40.13,34.94c-1.17,0-2.07-0.28-2.69-0.84c-0.62-0.56-0.94-1.35-0.94-2.39c0-1.01,0.29-1.82,0.87-2.42
		c0.58-0.6,1.4-0.9,2.44-0.9c0.95,0,1.66,0.26,2.14,0.77c0.48,0.51,0.72,1.24,0.72,2.2v0.69h-4.24c0.02,0.29,0.08,0.53,0.18,0.72
		c0.1,0.19,0.24,0.35,0.41,0.46c0.17,0.11,0.36,0.2,0.58,0.24c0.22,0.05,0.46,0.08,0.72,0.08c0.23,0,0.45-0.02,0.66-0.08
		c0.22-0.05,0.42-0.12,0.6-0.2c0.16-0.07,0.3-0.15,0.44-0.23c0.14-0.08,0.24-0.15,0.33-0.22h0.2v1.6c-0.16,0.06-0.3,0.12-0.43,0.17
		c-0.13,0.05-0.31,0.11-0.54,0.16c-0.21,0.05-0.43,0.1-0.65,0.13C40.72,34.92,40.45,34.94,40.13,34.94z M35.48,34.77h-1.93v-8.58
		h1.93V34.77z M30.2,34.11c-0.13,0.11-0.25,0.21-0.35,0.3c-0.11,0.09-0.24,0.17-0.42,0.26c-0.17,0.08-0.34,0.15-0.5,0.2
		c-0.16,0.05-0.39,0.07-0.68,0.07c-0.55,0-1-0.18-1.36-0.55c-0.36-0.37-0.54-0.83-0.54-1.39c0-0.46,0.09-0.83,0.27-1.12
		c0.18-0.28,0.45-0.51,0.79-0.68c0.35-0.17,0.76-0.29,1.25-0.35c0.48-0.07,1-0.12,1.56-0.15v-0.03c0-0.34-0.13-0.58-0.38-0.71
		c-0.25-0.13-0.63-0.2-1.13-0.2c-0.23,0-0.49,0.04-0.8,0.12c-0.3,0.08-0.6,0.19-0.89,0.32h-0.16v-1.5c0.19-0.05,0.5-0.12,0.93-0.2
		c0.43-0.08,0.86-0.11,1.29-0.11c1.06,0,1.84,0.18,2.33,0.53c0.49,0.36,0.73,0.9,0.73,1.63v4.22H30.2V34.11z M30.2,33.15v-1.3
		c-0.32,0.03-0.59,0.06-0.79,0.09c-0.2,0.02-0.4,0.07-0.59,0.14c-0.17,0.06-0.3,0.15-0.39,0.27c-0.09,0.12-0.14,0.28-0.14,0.48
		c0,0.29,0.08,0.49,0.23,0.6c0.16,0.11,0.38,0.16,0.69,0.16c0.17,0,0.34-0.04,0.51-0.12C29.9,33.4,30.06,33.29,30.2,33.15z
		 M24.48,34.89c-0.79,0-1.36-0.16-1.72-0.49c-0.36-0.32-0.54-0.85-0.54-1.59v-2.89h-0.73v-1.34h0.73v-1.77h1.93v1.77h1.86v1.34
		h-1.86v2.2c0,0.22,0,0.41,0.01,0.57c0,0.16,0.03,0.31,0.09,0.44c0.05,0.13,0.14,0.23,0.27,0.31c0.13,0.08,0.32,0.11,0.57,0.11
		c0.1,0,0.24-0.02,0.41-0.07c0.17-0.05,0.29-0.09,0.35-0.12h0.17v1.36c-0.21,0.06-0.43,0.1-0.67,0.13
		C25.12,34.88,24.83,34.89,24.48,34.89z M21.37,30.41h-0.16c-0.07-0.03-0.18-0.05-0.32-0.06c-0.14-0.01-0.3-0.02-0.46-0.02
		c-0.2,0-0.42,0.03-0.64,0.09c-0.22,0.06-0.44,0.13-0.65,0.21v4.14h-1.93v-6.19h1.93v0.89c0.09-0.08,0.21-0.18,0.37-0.3
		c0.16-0.12,0.3-0.22,0.43-0.3c0.14-0.08,0.3-0.16,0.49-0.22c0.19-0.06,0.36-0.09,0.53-0.09c0.06,0,0.13,0,0.21,0.01
		c0.08,0,0.15,0.01,0.21,0.02V30.41z M14.21,31.69c0-0.36-0.03-0.67-0.09-0.91c-0.06-0.24-0.14-0.44-0.25-0.59
		c-0.11-0.15-0.24-0.26-0.39-0.32c-0.14-0.06-0.31-0.09-0.49-0.09c-0.17,0-0.33,0.03-0.47,0.08c-0.14,0.05-0.27,0.15-0.39,0.3
		c-0.11,0.14-0.2,0.34-0.27,0.59c-0.07,0.25-0.1,0.56-0.1,0.94c0,0.38,0.03,0.68,0.09,0.91c0.06,0.23,0.14,0.42,0.24,0.56
		c0.1,0.14,0.23,0.25,0.39,0.31c0.15,0.07,0.33,0.1,0.52,0.1c0.15,0,0.31-0.03,0.47-0.1c0.16-0.07,0.29-0.16,0.38-0.3
		c0.11-0.16,0.2-0.35,0.26-0.57C14.18,32.39,14.21,32.08,14.21,31.69z M16.19,31.68c0,1.02-0.28,1.82-0.84,2.4
		c-0.56,0.59-1.35,0.88-2.36,0.88c-1.01,0-1.8-0.29-2.36-0.88c-0.56-0.59-0.84-1.39-0.84-2.4c0-1.03,0.28-1.83,0.84-2.41
		c0.56-0.58,1.35-0.87,2.36-0.87c1.02,0,1.8,0.29,2.36,0.88C15.91,29.85,16.19,30.66,16.19,31.68z M9.29,28.13H5.85v1.55h3.17v1.57
		H5.85v3.52H3.8v-8.21h5.5V28.13z"/>
</g>
</svg>
